<?xml version="1.0" standalone="no"?>
<!DOCTYPE svg PUBLIC "-//W3C//DTD SVG 1.1//EN" "http://www.w3.org/Graphics/SVG/1.1/DTD/svg11.dtd" >
<svg xmlns="http://www.w3.org/2000/svg">
<metadata></metadata>
<defs>
<font id="scala_sansbold_italic" horiz-adv-x="1126" >
<font-face units-per-em="2048" ascent="1638" descent="-410" />
<missing-glyph horiz-adv-x="512" />
<glyph unicode="&#xfb01;" horiz-adv-x="1101" d="M-358 -424l94 193q63 -35 103 -47.5t81 -12.5q72 0 125 67.5t70 184.5l123 807h-193l27 172l198 12l29 181q16 111 75.5 198.5t145.5 132.5q43 23 96.5 32t128.5 9q47 0 86 -3t79 -11t85 -22.5t103 -34.5l-68 -191q-33 12 -55.5 21.5t-38.5 13.5q-111 37 -205 37 q-92 0 -142 -59.5t-71 -198.5l-16 -105h395l150 15l-148 -967h-246l119 768h-301l-127 -819q-12 -78 -42 -158t-64 -131q-49 -72 -138.5 -116t-189.5 -44q-23 0 -48.5 2t-56.5 9q-49 10 -80.5 22t-82.5 43z" />
<glyph unicode="&#xfb02;" horiz-adv-x="1093" d="M-358 -424l94 193q63 -35 103 -47.5t81 -12.5q72 0 125 67.5t70 184.5l123 807h-193l27 172l198 12l29 181q16 111 75.5 199.5t145.5 131.5q45 23 97.5 32t130.5 9q25 0 45 -1t41.5 -2t46 -5t59.5 -10l199 20l-240 -1507h-246l201 1266l4 34q-43 10 -66.5 12.5t-52.5 2.5 q-98 0 -148 -57.5t-73 -200.5l-16 -105h211l-29 -184h-213l-127 -819q-12 -78 -42 -158t-64 -131q-49 -72 -138.5 -116t-189.5 -44q-23 0 -48.5 2t-56.5 9q-49 10 -80.5 22t-82.5 43z" />
<glyph horiz-adv-x="0" />
<glyph unicode="&#xd;" horiz-adv-x="512" />
<glyph unicode=" "  horiz-adv-x="512" />
<glyph unicode="&#x09;" horiz-adv-x="512" />
<glyph unicode="&#xa0;" horiz-adv-x="512" />
<glyph unicode="!" horiz-adv-x="540" d="M37 121q0 70 52 119t128 49q59 0 102 -48t43 -114q0 -70 -53 -119t-129 -49q-59 0 -101 48t-42 114zM127 399l154 1055l266 53l-189 -1108h-231z" />
<glyph unicode="&#x22;" horiz-adv-x="843" d="M248 887l74 465h170l-72 -465h-172zM578 887l73 465h170l-73 -465h-170z" />
<glyph unicode="#" d="M-43 389l37 199h231l39 192h-233l45 207h233l70 361h219l-70 -361h197l68 361h223l-68 -361h221l-45 -207h-223l-35 -192h226l-37 -199h-228l-73 -389h-222l72 389h-198l-74 -389h-221l75 389h-229zM446 588h195l39 192h-199z" />
<glyph unicode="$" horiz-adv-x="1112" d="M127 94l111 215q45 -31 79.5 -51t66.5 -32.5t67.5 -19.5t85.5 -13l65 421q-35 20 -61.5 38t-48 33t-42 31.5t-42.5 35.5q-78 66 -109 120t-31 125q0 78 33 144.5t93.5 117t144.5 81t186 38.5l18 115h134l-19 -115q49 -4 77 -9t62 -13q27 -6 48.5 -12.5t41 -14.5t40 -18.5 t49.5 -26.5l-117 -188q-43 20 -73 33.5t-55.5 21.5t-50 12t-55.5 8l-61 -378q25 -18 43 -30.5t31 -21.5q68 -45 108.5 -72.5t52.5 -37.5q49 -39 79 -100.5t30 -124.5q0 -66 -32 -139.5t-85 -131.5q-33 -37 -66.5 -62.5t-75.5 -44t-93 -31.5t-119 -24l-19 -114h-135l19 114 q-31 4 -54.5 7.5t-43 7.5t-37 9t-37.5 11q-23 6 -42.5 13.5t-42 17.5t-51 23.5t-67.5 31.5zM530 1026q0 -47 25 -77.5t90 -65.5l47 288q-162 -12 -162 -145zM672 193q92 16 132 54.5t40 112.5q0 53 -26.5 88t-96.5 76z" />
<glyph unicode="%" horiz-adv-x="1740" d="M70 1014q0 74 28.5 139.5t76.5 114.5t113.5 77.5t139.5 28.5t139.5 -28.5t114.5 -77.5t76.5 -114.5t27.5 -139.5t-27.5 -139.5t-76.5 -114.5t-114.5 -77t-139.5 -28t-139.5 28t-113.5 77t-76.5 114.5t-28.5 139.5zM184 -90l1159 1493h193l-1157 -1493h-195zM227 1014 q0 -84 58.5 -142.5t142.5 -58.5q86 0 143.5 58.5t57.5 142.5t-57.5 142t-143.5 58q-84 0 -142.5 -58t-58.5 -142zM954 332q0 74 28 139.5t77 114.5t114.5 76.5t139.5 27.5t139.5 -27.5t113.5 -76.5t76.5 -114.5t28.5 -139.5t-28.5 -139.5t-76.5 -113.5t-114 -77t-139 -29 q-74 0 -139.5 29t-114.5 77t-77 113.5t-28 139.5zM1112 332q0 -84 57.5 -142.5t143.5 -58.5q84 0 142 58.5t58 142.5q0 86 -58 143t-142 57q-86 0 -143.5 -57t-57.5 -143z" />
<glyph unicode="&#x26;" horiz-adv-x="1220" d="M66 324q0 139 39.5 258.5t110.5 208t167 138.5t207 50q127 0 195.5 -47t68.5 -133q0 -96 -55 -181q-23 -33 -50.5 -55t-84.5 -51l112 -156q27 27 45.5 46.5t32.5 37t26.5 35t24.5 39.5q39 66 67.5 145.5t41.5 161.5l41 258h-193l23 156h549l-25 -156h-166l-43 -282 q-6 -47 -21.5 -99.5t-36 -104.5t-45 -100.5t-50.5 -86.5q-16 -25 -31 -43.5t-32 -40t-43 -47t-62 -64.5l202 -297q4 -4 17.5 -22.5t38.5 -49.5q35 -47 55 -62.5t43 -15.5t46.5 16.5t68.5 63.5l110 -149q-53 -47 -82 -70q-111 -86 -184 -86q-100 0 -217 172l-264 385 q-61 -37 -97 -55t-77 -31q-47 -16 -102.5 -22t-110.5 -6q-47 0 -78 5t-58 15q-59 25 -91.5 109t-32.5 213zM309 356q0 -195 94 -194q18 0 49 6t54 14q16 6 35.5 16.5t66.5 39.5l-202 288q55 18 82.5 33.5t56.5 44.5q41 37 62.5 82t21.5 88q0 66 -58 66q-61 0 -139 -101 q-27 -35 -49.5 -80t-38.5 -96t-25.5 -104t-9.5 -103z" />
<glyph unicode="'" horiz-adv-x="514" d="M248 887l74 465h170l-72 -465h-172z" />
<glyph unicode="(" horiz-adv-x="632" d="M162 109q0 313 103.5 635.5t295.5 609.5h217q-193 -324 -287 -637.5t-94 -632.5q0 -66 4.5 -133.5t12.5 -138.5q6 -55 12 -94.5t14.5 -75t17.5 -71.5t25 -85h-219q-8 20 -13 34.5t-9 24.5q-16 45 -30.5 113t-26 144.5t-17.5 155.5t-6 151z" />
<glyph unicode=")" horiz-adv-x="632" d="M-113 -514q193 324 287 637t94 633q0 66 -3 133t-13 139q-6 55 -12.5 94t-13.5 75t-18 72t-26 83h219q16 -41 23 -58q16 -47 30.5 -114.5t26 -144.5t17.5 -156.5t6 -149.5q0 -313 -103.5 -634.5t-296.5 -608.5h-217z" />
<glyph unicode="*" horiz-adv-x="1024" d="M43 983l68 209l282 -111l-57 -176zM158 637l190 233l150 -108l-162 -256zM403 1403h222l-19 -303h-184zM528 762l150 108l192 -233l-180 -129zM631 1081l282 111l68 -211l-293 -76z" />
<glyph unicode="+" d="M78 401v168h401v402h168v-402h402v-168h-402v-401h-168v401h-401z" />
<glyph unicode="," horiz-adv-x="514" d="M-18 -338q14 23 25 40t20.5 32.5t19.5 34t23 45.5q12 27 20 44t14.5 33.5t11.5 34t11 41.5l-70 275q33 14 55.5 23t43 13.5t40 6.5t44.5 2q72 0 104.5 -30.5t32.5 -96.5q0 -45 -18.5 -103.5t-50.5 -124t-78 -135t-101 -135.5h-147z" />
<glyph unicode="-" horiz-adv-x="565" d="M57 356l39 228h428l-37 -228h-430z" />
<glyph unicode="." horiz-adv-x="514" d="M51 135q0 70 53.5 119t126.5 49q59 0 102.5 -48t43.5 -114q0 -70 -52.5 -119t-127.5 -49q-59 0 -102.5 48.5t-43.5 113.5z" />
<glyph unicode="/" horiz-adv-x="837" d="M-43 -502l809 1854h246l-809 -1854h-246z" />
<glyph unicode="0" horiz-adv-x="1081" d="M121 401q0 16 1 35t3 35q14 113 60 205t117 157.5t163 101.5t201 36q205 0 317.5 -110.5t112.5 -313.5q0 -127 -41 -231.5t-114 -180.5t-175 -119t-225 -43q-201 0 -310.5 112t-109.5 316zM362 436q0 -59 15.5 -110.5t43.5 -88t64.5 -58t79.5 -21.5q55 0 106.5 29.5 t90.5 79.5t62.5 114.5t23.5 136.5q0 57 -15.5 106.5t-41 85t-61.5 56t-77 20.5q-57 0 -109 -28.5t-92 -77.5t-65 -112.5t-25 -131.5z" />
<glyph unicode="1" horiz-adv-x="747" d="M94 811l492 180h116l-157 -991h-244l113 721l-260 -103z" />
<glyph unicode="2" horiz-adv-x="878" d="M27 0l18 117l291 217q88 66 140 116t85 97q29 41 44.5 81t15.5 70q0 41 -32 67t-85 26q-45 0 -104.5 -27t-163.5 -94l-113 180q35 20 67.5 35.5t61.5 29.5q78 37 164 57.5t170 20.5q143 0 218 -66.5t75 -195.5q0 -113 -52.5 -205t-167.5 -178l-219 -168h387l-28 -180 h-772z" />
<glyph unicode="3" horiz-adv-x="839" d="M-82 -360l88 180l31.5 -17.5t23.5 -11.5q29 -10 71 -18.5t73 -8.5q61 0 117.5 27t97.5 73t65.5 106.5t24.5 127.5q0 70 -47 108t-133 38h-115l37 155q59 18 112.5 49t92.5 70t61.5 82t22.5 84q0 43 -31 76t-72 33q-47 0 -105.5 -20.5t-135.5 -63.5l-78 153q68 41 106 58 q70 33 148 49t153 16q129 0 202 -67.5t73 -190.5q0 -168 -127 -272q-18 -16 -37 -28.5t-39 -23t-46 -20.5t-63 -23l25 2q133 10 193.5 -58t60.5 -204q0 -109 -44 -206t-121 -168.5t-179 -113.5t-219 -42q-55 0 -117 12q-25 4 -44 9.5t-37.5 11.5t-40 15t-48.5 22z" />
<glyph unicode="4" horiz-adv-x="952" d="M-20 0l14 90l696 901h205l-127 -811h127l-29 -180h-127l-67 -424h-232l66 424h-526zM279 180h256l49 309q6 41 15.5 76t25.5 92q-23 -37 -31 -55q-4 -4 -11.5 -16.5t-21.5 -34.5q-16 -25 -24 -37z" />
<glyph unicode="5" horiz-adv-x="823" d="M-29 -373l70 193q76 -31 124 -43.5t93 -12.5q57 0 107.5 26t88.5 69t59.5 100t21.5 123q0 109 -66 151q-33 20 -87 35t-99 15h-129l108 696h619l-33 -207h-373l-49 -309q78 -8 118 -16.5t83 -28.5q78 -37 121 -117t43 -188q0 -111 -44.5 -209.5t-119 -173t-174 -117.5 t-211.5 -43q-66 0 -126.5 12t-144.5 45z" />
<glyph unicode="6" d="M168 461q0 184 53 350t142.5 291t208 198.5t249.5 73.5q29 0 59.5 -3t61.5 -7q25 -4 46.5 -9t43 -12.5t46 -17.5t57.5 -25l-82 -192q-72 37 -114 51.5t-83 14.5q-86 0 -164 -56.5t-136 -152t-92 -224.5t-34 -272t47 -228t125 -85q47 0 89 25.5t75 70.5t51.5 104.5 t18.5 124.5q0 162 -205 162h-51l24 156q35 6 58.5 11t43 7t37 3t39.5 1q70 0 127.5 -23.5t98.5 -66.5t64.5 -102.5t23.5 -130.5q0 -111 -40 -206t-108.5 -166t-163 -111t-200.5 -40q-205 0 -310.5 124t-105.5 362z" />
<glyph unicode="7" horiz-adv-x="860" d="M12 -309q39 47 69 81.5t52.5 63.5t41 54.5t36.5 54.5q53 78 106.5 172t100.5 192l213 451h-527l35 219h797l-23 -141l-303 -619q-23 -47 -51.5 -98t-62.5 -111q-43 -74 -77 -127t-68 -102t-72.5 -100.5t-94.5 -118.5z" />
<glyph unicode="8" horiz-adv-x="1038" d="M96 279q0 45 15.5 93t42 94t62.5 85t77 67l172 115l-88 90q-49 51 -78 116t-29 126q0 68 34 125t95.5 98t146.5 63.5t187 22.5q164 0 256 -67.5t92 -186.5q0 -59 -24 -114q-23 -53 -58.5 -92.5t-107.5 -90.5l-129 -90l135 -115q68 -57 106.5 -130.5t38.5 -145.5 q0 -82 -39.5 -148.5t-113.5 -114.5t-175.5 -75t-224.5 -27q-193 0 -293 77t-100 225zM350 315q0 -72 53.5 -116.5t139.5 -44.5q47 0 91 17t76.5 46t52 67t19.5 81q0 84 -57 137l-125 116l-115 -77q-59 -41 -97 -103.5t-38 -122.5zM526 1057q0 -57 37 -105l76 -90l117 78 q33 23 51 56.5t18 74.5q0 55 -35.5 90t-93.5 35q-72 0 -121 -40t-49 -99z" />
<glyph unicode="9" d="M102 -334l82 193q61 -41 104.5 -56.5t92.5 -15.5q86 0 163 56.5t135 152.5t92 224t34 274q0 143 -47 227t-125 84q-47 0 -89 -25.5t-75 -70.5t-51.5 -103.5t-18.5 -124.5q0 -88 45 -123.5t162 -35.5h51l-24 -154q-55 -16 -87 -22.5t-77 -6.5q-152 0 -241 88t-89 236 q0 111 40 206t108.5 165.5t162 110.5t201.5 40q205 0 310.5 -122.5t105.5 -362.5q0 -184 -53 -349t-142.5 -291t-208 -200t-249.5 -74q-29 0 -58.5 4t-62.5 9q-29 4 -49.5 9t-42 12t-45 18.5t-54.5 27.5z" />
<glyph unicode=":" horiz-adv-x="514" d="M51 135q0 70 53.5 119t126.5 49q59 0 102.5 -48t43.5 -114q0 -70 -52.5 -119t-127.5 -49q-59 0 -102.5 48.5t-43.5 113.5zM160 813q0 70 52 118t126 48q61 0 104 -47t43 -115q0 -70 -53 -118t-129 -48q-59 0 -101 47t-42 115z" />
<glyph unicode=";" horiz-adv-x="514" d="M-18 -338q14 23 25 40t20.5 32.5t19.5 34t23 45.5q12 27 20 44t14.5 33.5t11.5 34t11 41.5l-70 275q33 14 55.5 23t43 13.5t40 6.5t44.5 2q72 0 104.5 -30.5t32.5 -96.5q0 -45 -18.5 -103.5t-50.5 -124t-78 -135t-101 -135.5h-147zM158 813q0 70 52 118t128 48 q59 0 102 -47t43 -115q0 -70 -53 -118t-129 -48q-59 0 -101 47t-42 115z" />
<glyph unicode="&#x3c;" d="M80 430v111l967 430v-164l-728 -322l728 -321v-164z" />
<glyph unicode="=" d="M51 223v168h1024v-168h-1024zM51 557v168h1024v-168h-1024z" />
<glyph unicode="&#x3e;" d="M80 0v164l727 321l-727 322v164l967 -430v-111z" />
<glyph unicode="?" horiz-adv-x="980" d="M115 1176q0 59 43 115.5t114.5 99.5t162.5 69.5t190 26.5q164 0 250 -78.5t86 -228.5q0 -90 -32 -171t-89 -141q-18 -18 -42 -38.5t-53 -45.5q-37 -29 -61.5 -49t-48 -36.5t-49 -34t-62.5 -41.5q16 -23 27.5 -37.5t23 -27.5t24.5 -28.5t34 -35.5l-172 -115 q-49 47 -75 75.5t-48 59.5q-14 18 -25.5 34.5t-22.5 37t-23.5 44t-26.5 58.5q47 27 80.5 46.5t62.5 38t58.5 37.5t66.5 46q31 23 56.5 43.5t45.5 38.5q45 45 71 104.5t26 118.5q0 61 -38 96t-108 35q-109 0 -211 -96q12 -18 19.5 -31.5t14.5 -26t16.5 -25.5t21.5 -34 l-182 -90q-37 33 -61.5 57.5t-38 45t-19.5 41t-6 43.5zM203 137q0 70 53 118t127 48q59 0 102 -47t43 -113q0 -70 -52 -119t-128 -49q-59 0 -102 47.5t-43 114.5z" />
<glyph unicode="@" horiz-adv-x="2048" d="M201 477q0 172 67.5 324.5t182 268.5t267 183.5t322.5 67.5q168 0 316.5 -62.5t261.5 -169t178.5 -247.5t65.5 -301q0 -123 -38 -225.5t-105.5 -177.5t-161 -116.5t-203.5 -41.5q-125 0 -182.5 55t-57.5 176v18l10 50q-25 -43 -45 -75t-42.5 -56.5t-48 -44t-58.5 -40.5 q-84 -51 -148 -51q-41 0 -76.5 24.5t-61.5 67.5t-40 102.5t-14 129.5q0 135 39 253t107.5 205t161.5 137t200 50q31 0 61.5 -3t66.5 -10t80 -18.5t105 -29.5l-113 -615q-4 -20 -7 -41.5t-3 -36.5q0 -88 101 -88q61 0 113 30t91 81t60.5 121.5t21.5 152.5q0 125 -49 234.5 t-135 192.5t-200.5 131t-243.5 48q-133 0 -252 -52t-208 -141t-141.5 -208t-52.5 -254q0 -131 51.5 -248.5t139.5 -206t204.5 -139.5t247.5 -51q27 0 53.5 2t55.5 6q25 4 45 9.5t39.5 11.5t42 15t51.5 24l68 -177q-23 -10 -40.5 -17t-29.5 -11q-31 -12 -69 -22.5 t-77.5 -17.5t-78.5 -11t-72 -4q-164 0 -313.5 68.5t-263 183t-180 267t-66.5 320.5zM815 362q0 -66 11.5 -93t39.5 -27q23 0 62 28.5t73 71.5q31 37 66 102q29 55 51.5 117t30.5 98l22 109q-53 18 -120 18q-47 0 -90 -33.5t-75 -92t-51.5 -135t-19.5 -163.5z" />
<glyph unicode="A" horiz-adv-x="1218" d="M-59 0l700 1352h236l274 -1352h-270l-54 334h-454l-162 -334h-270zM479 553h312l-80 489z" />
<glyph unicode="B" horiz-adv-x="1210" d="M104 0l215 1352h492q70 0 119 -4.5t85 -14.5t63.5 -27.5t51.5 -43.5q35 -39 56.5 -92.5t21.5 -112.5q0 -70 -29.5 -137.5t-80.5 -116.5q-18 -16 -38 -31.5t-42 -26.5q-39 -20 -71 -26t-93 -10q135 -4 211 -82t76 -211q0 -111 -54 -207q-59 -111 -160.5 -160t-267.5 -49 h-555zM414 207h164q135 0 207.5 57t72.5 166q0 78 -52 114t-169 36h-164zM506 799h153q113 0 182.5 59.5t69.5 157.5q0 68 -43 99.5t-141 31.5h-166z" />
<glyph unicode="C" horiz-adv-x="1239" d="M84 571q0 92 22.5 182.5t63.5 176.5q78 152 209 262q115 98 239.5 141t288.5 43q162 0 275 -47q37 -16 65.5 -33.5t79.5 -54.5l-133 -188q-39 29 -61.5 43t-57.5 26q-37 14 -83 22.5t-91 8.5q-111 0 -208 -43t-167.5 -119t-111.5 -179t-41 -222q0 -180 109.5 -281.5 t299.5 -101.5q66 0 142 16q20 4 38.5 9.5t37 12.5t41 16t51.5 22l55 -209q-39 -18 -67.5 -30.5t-53.5 -22t-50.5 -15.5t-55.5 -12q-49 -10 -100.5 -15.5t-108.5 -5.5q-147 0 -264 41t-197 118t-123 187.5t-43 251.5z" />
<glyph unicode="D" horiz-adv-x="1456" d="M104 0l215 1352h504q186 0 308 -48.5t206 -154.5q59 -76 90 -170.5t31 -198.5q0 -190 -100 -370q-225 -410 -750 -410h-504zM416 227h205q123 0 225 40t176 113t114 173t40 223q0 94 -23 159.5t-73 107.5t-129 61.5t-189 19.5h-203z" />
<glyph unicode="E" horiz-adv-x="1103" d="M121 0l213 1352h825l-35 -219h-567l-53 -334h463l-33 -219h-465l-57 -361h585l-26 -219h-850z" />
<glyph unicode="F" horiz-adv-x="1069" d="M121 0l213 1352h837l-34 -219h-580l-55 -349h477l-35 -217h-477l-90 -567h-256z" />
<glyph unicode="G" horiz-adv-x="1449" d="M98 573q0 104 30 208t85 196q39 63 87 118.5t108 102.5q59 47 120.5 81t128 55.5t141 30.5t160.5 9q78 0 151 -9t136 -26q23 -6 43.5 -12t42 -14t48 -19.5t61.5 -27.5l-94 -207q-35 16 -62 26.5t-45 18.5q-66 25 -133.5 39t-132.5 14q-125 0 -234.5 -43t-190.5 -118.5 t-127 -176t-46 -217.5q0 -90 32.5 -163.5t92 -128t141.5 -84t180 -29.5q25 0 46.5 2t43 6t46 11t57.5 17l57 371h264l-88 -555q-49 -10 -85 -19.5t-60 -15.5q-104 -23 -180 -33t-158 -10q-152 0 -274.5 43t-209.5 121t-134.5 189.5t-47.5 248.5z" />
<glyph unicode="H" horiz-adv-x="1579" d="M121 0l213 1352h258l-86 -541h696l84 541h258l-213 -1352h-258l92 580h-696l-92 -580h-256z" />
<glyph unicode="I" horiz-adv-x="614" d="M115 0l213 1352h258l-215 -1352h-256z" />
<glyph unicode="J" horiz-adv-x="614" d="M-420 -430l88 235l51 -18q55 -20 87 -28.5t63 -8.5q82 0 141 49q47 41 72 109q16 47 31.5 119.5t29.5 162.5l185 1162h256l-209 -1325q-14 -88 -29.5 -152.5t-37 -114t-50.5 -84t-65 -65.5q-66 -51 -147 -75.5t-189 -24.5q-31 0 -57.5 2t-56.5 8t-67.5 18t-95.5 31z" />
<glyph unicode="K" horiz-adv-x="1169" d="M104 0l215 1352h263l-99 -617l514 617h310l-576 -666l375 -686h-285l-352 647l-102 -647h-263z" />
<glyph unicode="L" horiz-adv-x="1013" d="M121 0l213 1352h258l-180 -1133h549l-29 -219h-811z" />
<glyph unicode="M" horiz-adv-x="1798" d="M133 0l213 1352h309l209 -965q4 -25 7 -39t3 -39q0 -6 -1 -12t-1 -14q8 25 13.5 39t9.5 24t9 19.5t11 21.5l527 965h309l-215 -1352h-244l193 1081l-45 -118l-37 -82l-37 -82l-434 -799h-232l-143 694q-4 20 -8 49t-8 70q-6 39 -9.5 66.5t-5.5 53t-3 53.5t-3 71 l-155 -1057h-232z" />
<glyph unicode="N" horiz-adv-x="1554" d="M131 0l213 1352h295l408 -850q16 -37 34 -88q6 -20 10.5 -36t7.5 -31t6 -33.5t7 -43.5l25 297l123 785h247l-213 -1352h-276l-395 784q-12 25 -22.5 49.5t-20.5 53.5q-10 25 -16.5 45t-11.5 41.5t-9 47.5t-11 60l-26 -243l-125 -838h-250z" />
<glyph unicode="O" horiz-adv-x="1562" d="M96 565q0 29 2 55.5t6 55.5q25 158 95.5 287t178 221t248 142t300.5 50q143 0 260 -41t197.5 -117.5t124.5 -186.5t44 -245q0 -170 -64.5 -318.5t-177 -258t-263 -173t-324.5 -63.5q-141 0 -257 42t-198 120t-127 186.5t-45 243.5zM375 567q0 -84 26.5 -152.5 t73.5 -119.5t112.5 -79t145.5 -28q111 0 209 47.5t172 128t117 189t43 231.5q0 82 -26.5 152t-76 120t-116 77.5t-146.5 27.5q-111 0 -208 -47t-169.5 -128t-114.5 -188.5t-42 -230.5z" />
<glyph unicode="P" horiz-adv-x="1138" d="M119 0l213 1352h467q197 0 303 -96.5t106 -272.5q0 -123 -40 -221t-115.5 -166t-182 -104.5t-241.5 -36.5q-53 0 -94 3t-80 7l-74 -465h-262zM487 682l31 -2q28 -3 45 -3h7q18 1 38 1q96 0 148.5 14.5t93.5 48.5q41 35 64.5 94.5t23.5 125.5q0 172 -201 172h-178z" />
<glyph unicode="Q" horiz-adv-x="1562" d="M96 559q0 174 63.5 323.5t175 259t263.5 172t328 62.5q143 0 260 -41t197.5 -117.5t124.5 -186.5t44 -245q0 -98 -25.5 -196t-72.5 -189q-35 -63 -79 -120.5t-99 -106.5q-41 -37 -74 -61.5t-68.5 -45t-79.5 -37t-104 -34.5l-280 -174q33 -10 55.5 -16.5t38.5 -10.5 q51 -12 112.5 -22.5t128 -18.5t135 -12t130.5 -4h55.5t51 2t55 5t69.5 7l-59 -215q-45 -6 -78 -11t-61.5 -7t-57 -3t-65.5 -1q-82 0 -168 7t-164 19q-80 12 -148.5 27.5t-135 38t-136.5 53.5t-149 76l-37 20l364 232q-61 4 -94 10t-72 20q-78 29 -140 82.5t-108.5 125 t-71 156.5t-24.5 177zM375 569q0 -84 26.5 -153.5t73.5 -120.5t112.5 -79t145.5 -28q111 0 209 47.5t172 129t117 189t43 230.5q0 82 -26.5 152t-75 120t-116 77.5t-147.5 27.5q-111 0 -208 -47t-169.5 -128t-114.5 -188.5t-42 -228.5z" />
<glyph unicode="R" horiz-adv-x="1196" d="M119 0l213 1352h452q217 0 319.5 -81t102.5 -255q0 -92 -30.5 -176t-83.5 -144q-23 -25 -45.5 -42t-50 -31.5t-61.5 -24.5t-81 -23l256 -575h-291l-223 541h-131l-84 -541h-262zM500 760h166q125 0 193.5 59t68.5 168q0 66 -43 113q-14 14 -27.5 23.5t-31 14.5t-41 7 t-60.5 2h-168z" />
<glyph unicode="S" horiz-adv-x="1093" d="M29 70l96 237q33 -16 57.5 -27.5t46 -20.5t42 -16t42.5 -14q49 -14 98.5 -22t84.5 -8q45 0 86 15t72.5 42t51 59.5t19.5 69.5q0 27 -12 49q-20 39 -76 76q-47 33 -188 121q-143 90 -205 164.5t-62 165.5q0 88 39 163.5t107.5 131t162 87t203.5 31.5q39 0 87 -3t96 -9 q35 -4 62.5 -9t54 -11.5t56 -15.5t68.5 -21l-80 -242q-29 12 -50 21.5t-40.5 16.5t-38 13t-41.5 12q-94 23 -159 23q-47 0 -88 -13.5t-72 -36t-48.5 -53t-17.5 -63.5q0 -72 97 -131l200 -129q123 -78 175.5 -152.5t52.5 -167.5q0 -98 -37 -177t-103.5 -135t-162 -87 t-211.5 -31q-59 0 -135 10.5t-148 28.5q-41 10 -78 21.5t-104 36.5z" />
<glyph unicode="T" horiz-adv-x="1103" d="M133 1133l33 219h1069l-35 -219h-405l-179 -1133h-258l181 1133h-406z" />
<glyph unicode="U" horiz-adv-x="1433" d="M152 350q0 94 14 178l131 824h262l-133 -838q-4 -23 -6 -45.5t-2 -38.5q0 -111 62.5 -163t197.5 -52q154 0 247 77t115 224l134 836h262l-131 -824q-16 -96 -36 -166.5t-49.5 -124t-71.5 -93.5t-99 -74q-84 -51 -175.5 -74t-218.5 -23q-240 0 -371.5 98.5t-131.5 278.5z " />
<glyph unicode="V" horiz-adv-x="1193" d="M156 1352h280l164 -914q2 -4 2 -18q2 -10 2 -15.5v-7.5v-4v-20q0 35 10 51l11 16l438 912h280l-700 -1352h-213z" />
<glyph unicode="W" horiz-adv-x="1769" d="M156 1352h268l184 -1012l242 455l-127 557h227l60 -267l131 267h229l-297 -549l117 -451l479 1000h254l-694 -1352h-201l-110 549l-283 -549h-186z" />
<glyph unicode="X" horiz-adv-x="1171" d="M-68 0l553 690l-301 662h289l184 -449l340 449h310l-521 -652l308 -700h-287l-207 475l-371 -475h-297z" />
<glyph unicode="Y" d="M158 1352h276l187 -525l364 525h295l-578 -779l-90 -573h-262l92 590z" />
<glyph unicode="Z" horiz-adv-x="1218" d="M6 0l27 174l889 959h-723l34 219h1074l-27 -174l-877 -959h723l-34 -219h-1086z" />
<glyph unicode="[" horiz-adv-x="512" d="M-12 -502l295 1854h411l-28 -181h-168l-236 -1493h166l-27 -180h-413z" />
<glyph unicode="\" horiz-adv-x="837" d="M252 1352h244l233 -1854h-244z" />
<glyph unicode="]" horiz-adv-x="512" d="M-166 -502l29 180h168l235 1493h-166l29 181h412l-295 -1854h-412z" />
<glyph unicode="^" horiz-adv-x="1069" d="M49 0l426 967h115l426 -967h-168l-322 721l-323 -721h-154z" />
<glyph unicode="_" horiz-adv-x="1024" d="M-84 -168l27 168h1024l-27 -168h-1024z" />
<glyph unicode="`" horiz-adv-x="784" d="M475 1395h203l139 -336h-164z" />
<glyph unicode="a" horiz-adv-x="1058" d="M78 274q0 98 20.5 192.5t59.5 176.5t93 148.5t122 111.5q63 41 128.5 57.5t166.5 16.5q33 0 62.5 -1t66.5 -5t85 -11.5t119 -19.5l-145 -940h-219l43 270q-31 -43 -53.5 -72.5t-44 -53t-45 -44t-52.5 -41.5q-55 -41 -112.5 -63.5t-106.5 -22.5q-84 0 -136 84t-52 217z M338 342q0 -66 16.5 -101.5t46.5 -35.5q29 0 73 35.5t91 95.5q59 78 98 162t52 164l20 133q-29 6 -44 8t-38 2q-63 0 -120.5 -38t-100.5 -101.5t-68.5 -147.5t-25.5 -176z" />
<glyph unicode="b" horiz-adv-x="1052" d="M70 0l233 1481l248 26l-84 -540l-16 -76q-6 -27 -10.5 -47.5t-8.5 -41t-10 -45t-14 -57.5q25 39 43 68t38.5 51.5t42 43t52.5 42.5q55 41 102 58.5t107 17.5q200 0 200 -311q0 -70 -13 -147t-36 -140q-51 -150 -164 -268q-39 -41 -74.5 -68t-75.5 -43t-87 -23.5 t-109 -7.5h-41t-39.5 2t-49.5 4.5t-71 6.5t-74.5 7t-88.5 7zM338 160q41 -10 60.5 -14.5t37.5 -4.5q61 0 115.5 42t96.5 114t66.5 166.5t24.5 198.5q0 53 -13 73.5t-44 20.5q-35 0 -83 -37t-103 -107q-66 -84 -93 -157q-6 -18 -12 -42t-14 -53q-8 -33 -13.5 -56t-9.5 -40z " />
<glyph unicode="c" horiz-adv-x="856" d="M78 305q0 143 41 267t111.5 215.5t168 142.5t211.5 51q35 0 70 -4t63 -10q29 -6 56.5 -16.5t85.5 -35.5l-101 -188q-72 41 -111.5 54.5t-76.5 13.5q-57 0 -106.5 -34t-86 -92.5t-57 -139t-20.5 -173.5q0 -76 24.5 -118.5t65.5 -42.5q37 0 108.5 38.5t188.5 122.5l94 -145 l-64 -45q-37 -27 -64.5 -45.5t-50 -33.5t-43 -26.5t-44.5 -21.5q-123 -55 -240 -55q-223 0 -223 321z" />
<glyph unicode="d" horiz-adv-x="1081" d="M78 252q0 150 42 283t113.5 233t167 158.5t203.5 58.5q45 0 82 -9t100 -36l91 541l247 26l-237 -1507h-232l43 283q-31 -55 -49 -80q-45 -66 -117 -125q-63 -51 -134.5 -82t-125.5 -31q-92 0 -143 76t-51 211zM330 301q0 -47 14 -72.5t41 -25.5t71 27.5t91 72.5 q37 37 69.5 79t57 86t42 87t23.5 80l19 119q-57 51 -125 51q-51 0 -108.5 -43t-98.5 -115q-18 -35 -35.5 -79t-31 -91t-21.5 -93t-8 -83z" />
<glyph unicode="e" horiz-adv-x="909" d="M78 311q0 147 39 271.5t109.5 212.5t170 137t217.5 49q271 0 271 -199q0 -80 -40 -137t-130 -104l-414 -219q6 -35 11 -53.5t16 -32.5q14 -23 40.5 -36.5t51.5 -13.5q20 0 53 7.5t64 19.5q20 8 38.5 18.5t42 25.5t56.5 38.5t82 60.5l94 -145q-43 -35 -69.5 -54.5 t-65.5 -47.5q-68 -47 -107 -68q-59 -33 -127.5 -50.5t-130.5 -17.5q-272 0 -272 338zM315 489l322 181q8 20 10 31.5t2 25.5q0 88 -82 88q-72 0 -137 -78q-18 -23 -32.5 -44t-28 -50t-26.5 -65.5t-28 -88.5z" />
<glyph unicode="f" horiz-adv-x="575" d="M-358 -424l94 193q63 -35 103 -47.5t81 -12.5q72 0 125 67.5t70 184.5l123 807h-193l27 172l198 12l29 181q29 176 140.5 274t283.5 98h38.5t43.5 -4q27 -4 49.5 -7t47 -10t55 -18.5t75.5 -27.5l-69 -189q-82 35 -135.5 49.5t-108.5 14.5q-86 0 -132 -59.5t-69 -196.5 l-16 -105h190l-28 -184h-193l-127 -819q-12 -78 -42 -158t-64 -131q-49 -72 -138.5 -116t-189.5 -44q-23 0 -48.5 2t-56.5 9q-49 10 -80.5 22t-82.5 43z" />
<glyph unicode="g" horiz-adv-x="995" d="M0 -272q0 129 199 247q-129 12 -129 99q0 39 37.5 92t132.5 143q-35 29 -51.5 47.5t-28.5 34.5q-47 66 -47 164q0 92 32.5 170t91 136.5t136.5 91t170 32.5q45 0 79.5 -6t92.5 -25h180l143 13l-41 -181h-141q16 -35 22.5 -59.5t6.5 -62.5q0 -86 -32 -162t-87 -132.5 t-130 -89t-159 -32.5q-27 0 -47 2t-57 8q-29 -31 -47.5 -61.5t-18.5 -44.5t12 -23q4 -4 9.5 -6t14.5 -4t26.5 -2h46.5h243q119 0 186.5 -60.5t67.5 -167.5q0 -78 -44 -147.5t-117.5 -121.5t-171 -84t-205.5 -32q-78 0 -146.5 17.5t-120 48.5t-80 71t-28.5 87zM260 -233 q0 -35 45 -56.5t113 -21.5q47 0 97 17.5t87 45.5q29 23 47.5 53.5t18.5 55.5q0 41 -32 58.5t-108 17.5h-155q-49 -47 -81 -94.5t-32 -75.5zM365 571q0 -68 27.5 -110.5t70.5 -42.5q29 0 60.5 21.5t56.5 56.5q25 37 38 81t13 87q0 72 -26.5 115.5t-72.5 43.5q-59 0 -110 -75 q-57 -82 -57 -177z" />
<glyph unicode="h" horiz-adv-x="1087" d="M70 0l233 1481l248 26l-90 -555q-4 -29 -8 -49t-9 -35q-6 -33 -9 -52t-7 -36.5l-8 -35t-12 -44.5q98 143 197.5 211t215.5 68q98 0 142.5 -47.5t44.5 -151.5v-27.5t-2 -25.5l-113 -727h-246l94 608q4 20 6.5 43t2.5 37q0 63 -43 64q-74 0 -177 -113q-33 -35 -63.5 -77 t-46.5 -73t-33 -86q-6 -23 -11 -38t-9.5 -32.5t-7.5 -40t-9 -54.5l-37 -238h-243z" />
<glyph unicode="i" horiz-adv-x="526" d="M86 0l145 940l248 27l-149 -967h-244zM264 1286q0 8 4 25q12 59 55.5 96t98.5 37q43 0 72.5 -44.5t29.5 -105.5q0 -12 -2 -20q-10 -59 -54 -96t-99 -37q-43 0 -74 43t-31 102z" />
<glyph unicode="j" horiz-adv-x="530" d="M-383 -412l84 205q111 -65 182 -65h2q82 0 132.5 85t78.5 277l131 850l248 27l-145 -955q-16 -102 -46 -185t-77 -144q-27 -37 -66 -68t-84 -53.5t-93 -34.5t-95 -12q-25 0 -49.5 3t-53 12t-64.5 22.5t-85 35.5zM266 1286q0 16 2 25q12 59 56.5 96t97.5 37 q43 0 73.5 -44.5t30.5 -105.5q0 -4 -4 -20q-10 -59 -53 -96t-100 -37q-43 0 -73 43t-30 102z" />
<glyph unicode="k" horiz-adv-x="954" d="M70 0l233 1481l248 26l-139 -878l61 59l88 80l82 88l88 96h283q-27 -33 -47.5 -56.5t-34.5 -39.5q-12 -14 -40 -42l-71 -71l-86 -84q-29 -29 -58.5 -54t-88.5 -77q16 -37 27.5 -61.5t23.5 -47t26.5 -49t36.5 -65.5q29 -49 48.5 -83t39 -64.5t43 -66.5t60.5 -91h-283 q-25 39 -41 67.5t-28.5 50t-21.5 40t-19 39.5q-12 23 -22.5 45t-21 47.5t-23.5 58.5t-30 76l-26 -14l-64 -410h-243z" />
<glyph unicode="l" horiz-adv-x="505" d="M70 0l233 1481l248 26l-238 -1507h-243z" />
<glyph unicode="m" horiz-adv-x="1683" d="M86 0l145 940l248 27l-53 -267q96 143 195.5 211t216.5 68q188 0 188 -178q0 -10 -1 -29.5t-3 -44.5q98 133 191.5 192.5t203.5 59.5q98 0 143.5 -47.5t45.5 -151.5q0 -14 -1 -27.5t-3 -25.5l-113 -727h-244l92 608q4 20 6.5 43t2.5 37q0 63 -43 64q-74 0 -177 -113 q-41 -45 -69.5 -86t-50 -87t-36 -101.5t-24.5 -126.5l-37 -238h-243l94 608q4 20 5 43t1 37q0 63 -41 64q-76 0 -178 -113q-33 -35 -62.5 -77t-46.5 -73q-10 -16 -17 -37.5t-18 -48.5q-6 -23 -11 -38t-9 -32.5t-7 -40t-9 -54.5l-37 -238h-244z" />
<glyph unicode="n" horiz-adv-x="1105" d="M86 0l145 940l248 27l-53 -267q96 143 195.5 211t216.5 68q98 0 143 -47.5t45 -151.5q0 -14 -1 -27.5t-3 -25.5l-113 -727h-243l94 608q4 20 5 43t1 37q0 63 -41 64q-76 0 -178 -113q-33 -35 -62.5 -77t-46.5 -73q-10 -16 -17 -37.5t-18 -48.5q-6 -23 -11 -38t-9 -32.5 t-7 -40t-9 -54.5l-37 -238h-244z" />
<glyph unicode="o" horiz-adv-x="1021" d="M78 358q0 137 40 251t111.5 196t170 128t216.5 46q170 0 257.5 -100t87.5 -295q0 -59 -10.5 -121t-28.5 -115t-47 -101t-64 -93q-80 -96 -170 -138.5t-217 -42.5q-168 0 -257 99.5t-89 285.5zM330 358q0 -92 32.5 -149t86.5 -57q20 0 44.5 10t43.5 26q78 66 124 172.5 t46 217.5q0 98 -31 155.5t-84 57.5q-47 0 -98.5 -42t-90.5 -114q-35 -66 -54 -136.5t-19 -140.5z" />
<glyph unicode="p" horiz-adv-x="1077" d="M6 -477l219 1417l250 27l-51 -267q35 61 84 113.5t104.5 90.5t111.5 60.5t107 22.5q92 0 143.5 -76t51.5 -211q0 -147 -42 -280t-113.5 -233.5t-167 -159t-201.5 -58.5q-51 0 -92 10.5t-82 32.5l-78 -489h-244zM356 199q41 -33 61.5 -42.5t47.5 -9.5q53 0 111.5 43 t99.5 115q20 33 37.5 78t31 92t20.5 93t7 83q0 98 -53 99q-29 0 -75 -29t-89 -72q-27 -27 -58.5 -67.5t-52.5 -71.5q-53 -84 -69 -193z" />
<glyph unicode="q" horiz-adv-x="1060" d="M78 283q0 70 12 146.5t35 139.5q27 76 69 142.5t95 126.5q39 41 74.5 67.5t75.5 43t87 23.5t109 7h41t39.5 -1t50.5 -4t70 -7q25 -2 44 -4t38.5 -4.5t42 -3.5t53.5 -3l-228 -1441h-243l75 477l15 73l16 78l17 72q-86 -117 -185.5 -178.5t-206.5 -61.5q-98 0 -147 79 t-49 233zM332 289q0 -94 69 -94q35 0 81 28.5t93 77.5q35 35 55.5 72t39.5 90q18 49 31.5 98t19.5 88l20 144q-29 10 -46 14t-46 4q-123 0 -198 -98q-27 -33 -48.5 -80t-37 -104.5t-24.5 -119t-9 -120.5z" />
<glyph unicode="r" horiz-adv-x="706" d="M86 0l145 940l215 27l-38 -285q14 25 24 43t17 31q25 41 52 77.5t56 69.5q33 37 65.5 53.5t75.5 16.5q23 0 40.5 -7.5t45.5 -25.5l-94 -278q-20 12 -39 12q-51 0 -112 -64q-76 -76 -119 -182q-10 -25 -18.5 -50.5t-16.5 -54t-14 -65.5t-15 -86l-26 -172h-244z" />
<glyph unicode="s" horiz-adv-x="741" d="M12 27l68 198q78 -29 128 -40t95 -11q57 0 89 22.5t32 59.5q0 29 -15.5 52.5t-54.5 58.5q-49 43 -77.5 68.5t-36.5 31.5q-23 23 -43.5 43t-36.5 41q-53 70 -54 151q0 133 93.5 206t265.5 73q76 0 142.5 -13.5t135.5 -41.5l-69 -199q-35 18 -62.5 30.5t-50 18.5t-44 9 t-46.5 3q-125 0 -125 -71q0 -23 12 -41q6 -12 14.5 -21.5t23 -23t39 -35t65.5 -53.5q53 -45 88 -81t56.5 -68t30.5 -64.5t9 -69.5q0 -131 -90 -209t-240 -78q-29 0 -70.5 3.5t-82.5 9.5q-29 4 -51.5 8t-43 8t-42 10t-52.5 15z" />
<glyph unicode="t" horiz-adv-x="716" d="M78 768l26 172l158 12l41 265l236 26l-45 -291h204l-26 -184h-207l-82 -530q41 16 62.5 25t54.5 26q27 14 44 24.5t48 30.5l82 -145q-23 -16 -41.5 -29.5t-30.5 -22.5q-18 -12 -41.5 -26.5t-48.5 -28.5t-49.5 -27.5t-42.5 -21.5q-61 -29 -120.5 -44t-137.5 -26 q-12 23 -18.5 51.5t-6.5 69.5q0 27 4 69t13 89l79 516h-155z" />
<glyph unicode="u" horiz-adv-x="1099" d="M111 164v30.5t4 30.5l110 715l248 27l-96 -623q-4 -31 -6 -47t-2 -31q0 -65 42 -65h1q74 0 176 112q41 45 70.5 87t51 88.5t36 100.5t24.5 126l33 225l250 27l-150 -967h-231l45 283q-16 -29 -28.5 -51.5t-22.5 -38.5q-20 -29 -49 -61t-62 -60q-117 -98 -256 -99 q-188 0 -188 191z" />
<glyph unicode="v" horiz-adv-x="913" d="M139 -27v967l232 27v-715q37 47 61.5 80t43 56.5t31.5 42t25 36.5q37 53 63 94t40 78t20.5 71.5t6.5 73.5q0 41 -5.5 72t-19.5 70l264 41q4 -49 6 -86t2 -72q0 -129 -63 -248q-37 -66 -102.5 -148.5t-180.5 -207.5q-37 -39 -63.5 -67.5t-51 -53.5t-53 -50.5t-67.5 -60.5 h-189z" />
<glyph unicode="w" horiz-adv-x="1411" d="M139 -27v967l228 27v-715q55 61 79 92q29 37 68 89t92 136l35 54v317l231 27v-715q31 39 54.5 68.5t42 54t34 47t31.5 47.5q37 53 60.5 95t38 79t20.5 72t6 71q0 66 -20 140l258 41q6 -53 8 -84t2 -72q0 -133 -66 -250q-35 -66 -100 -148.5t-180 -207.5 q-37 -39 -63.5 -67.5t-52 -53.5t-53.5 -50.5t-67 -60.5h-184v394q-29 -43 -56.5 -80t-52.5 -70q-29 -39 -51 -67.5t-46.5 -55t-54.5 -55.5t-69 -66h-172z" />
<glyph unicode="x" horiz-adv-x="854" d="M-78 0l385 481l-211 459l248 27l115 -293l205 278h274l-391 -489l215 -463h-262l-109 262l-203 -262h-266z" />
<glyph unicode="y" horiz-adv-x="899" d="M61 940l248 27l144 -662q27 35 45 60.5t31.5 49t25.5 48t27 55.5q35 78 49 142.5t14 138.5q0 39 -4 63.5t-16 63.5l252 41q10 -51 13 -82t3 -70q0 -141 -47 -276q-16 -45 -33.5 -82t-42.5 -76t-60.5 -85t-86.5 -108q-53 -63 -79 -104t-36 -84l-115 -477h-243l110 450 q8 31 12 64t4 57q0 20 -6 39z" />
<glyph unicode="z" horiz-adv-x="901" d="M23 0l20 133l496 621h-414l31 198h735l-21 -131l-495 -622h450l-30 -199h-772z" />
<glyph unicode="{" horiz-adv-x="837" d="M160 424l26 168h76q76 0 125 59.5t68 171.5l67 428q43 272 309 273h168l-22 -160h-76q-156 0 -188 -205l-62 -385q-10 -63 -26.5 -108t-44.5 -80q-14 -18 -27.5 -30.5t-30 -21t-41 -13.5t-61.5 -9q39 -6 53 -9t27 -7q35 -16 55 -56.5t20 -95.5q0 -45 -6 -94l-59 -379 q-4 -23 -6 -41t-2 -35q0 -57 35.5 -93t93.5 -36h78l-33 -190h-168q-119 0 -174 50t-55 157q0 33 6 67l67 430q4 20 5 41t1 37q0 76 -32.5 121t-89.5 45h-76z" />
<glyph unicode="|" horiz-adv-x="512" d="M0 -492l313 1983h228l-314 -1983h-227z" />
<glyph unicode="}" horiz-adv-x="837" d="M-115 -524l23 159h76q156 0 188 207l61 385q10 63 26.5 107.5t45.5 81.5q14 18 27.5 30.5t30 19.5t41 12t61.5 11q-41 4 -54.5 7.5t-25.5 9.5q-35 14 -56.5 55t-21.5 96q0 23 2 46.5t6 46.5l60 380q4 23 6 41.5t2 32.5q0 59 -36 95t-93 36h-78l33 189h168 q119 0 174 -49.5t55 -155.5q0 -35 -6 -68l-68 -430q-4 -23 -6 -42t-2 -36q0 -78 34 -123t89 -45h78l-27 -167h-75q-156 0 -193 -232l-68 -426q-43 -274 -309 -274h-168z" />
<glyph unicode="~" horiz-adv-x="1114" d="M8 455q25 20 43.5 34.5t36.5 24.5t36.5 19.5t43.5 19.5q88 37 164 37t166 -41l102 -45q47 -20 79 -28.5t66 -8.5q66 0 129 22q35 12 62 27.5t74 48.5l92 -145q-51 -37 -81 -54.5t-73 -33.5q-96 -37 -186 -37q-33 0 -60.5 3t-57.5 12t-65.5 24.5t-84.5 38.5q-47 23 -79 31 t-67 8q-61 0 -127.5 -26t-128.5 -73z" />
<glyph unicode="&#xa1;" horiz-adv-x="540" d="M-43 -475l182 1067h232l-150 -1016zM137 864q0 70 52.5 118t127.5 48q59 0 101.5 -47t42.5 -115q0 -70 -52.5 -118t-125.5 -48q-59 0 -102.5 47.5t-43.5 114.5z" />
<glyph unicode="&#xa2;" horiz-adv-x="802" d="M59 307q0 268 148 465q66 92 153 148q39 25 77 36t104 21l22 119h113l-23 -121q35 -4 59.5 -9t48 -11.5t48.5 -16.5t57 -25l-106 -194q-23 18 -39 28.5t-31.5 18.5t-32 12t-39.5 10l-110 -569q31 18 53.5 31.5t42 27t41 31t51.5 41.5l95 -143q-29 -23 -49.5 -39 t-39 -28.5t-36 -24t-37.5 -23.5q-25 -16 -43.5 -26.5t-36 -18.5t-35.5 -16t-45 -17l-39 -194h-111l33 170q-55 -6 -80 -6q-111 0 -162 78.5t-51 244.5zM307 371q0 -92 19.5 -130t66.5 -44l111 589q-92 -55 -144.5 -164.5t-52.5 -250.5z" />
<glyph unicode="&#xa3;" horiz-adv-x="1179" d="M-10 -309q61 18 91 29.5t56 25.5q43 25 76 57q16 18 29.5 37t25 42.5t21.5 55t22 74.5l49 181h-219l56 155l211 25l196 696q20 72 40 125t39 93t42 68.5t51 51.5q49 43 126 67.5t159 24.5q90 0 170 -35q47 -23 84 -60.5t86 -115.5l-184 -117q-25 43 -41.5 69t-34 39 t-37 18.5t-45.5 5.5q-39 0 -66.5 -13.5t-52.5 -52.5t-50.5 -110.5t-58.5 -186.5l-167 -567h335l-59 -180h-336l-57 -232q-23 -88 -82 -192q16 2 29.5 3t21.5 1t21.5 -1t31.5 -3q51 -6 74 -13l82 -20l96 -25q16 -4 30.5 -5t27.5 -1q74 0 73 80q0 20 -6 49l-12 49l174 39 q20 -53 26.5 -82.5t6.5 -66.5q0 -137 -84 -208t-248 -71q-43 0 -83 5t-75 14l-141 32q-70 16 -148 17q-86 0 -151 -15l-145 -34l-76 -15v193z" />
<glyph unicode="&#xa5;" d="M104 281l23 137h297l22 141h-296l20 131l240 -2l-248 664h282l187 -529l368 529h283l-494 -664l236 2l-20 -131h-299l-21 -141h297l-20 -137h-299l-46 -281h-258l45 281h-299z" />
<glyph unicode="&#xa6;" horiz-adv-x="512" d="M63 -492l136 859h227l-135 -859h-228zM242 633l135 858h227l-135 -858h-227z" />
<glyph unicode="&#xa7;" horiz-adv-x="1062" d="M27 -375l163 105q33 -63 75 -88t118 -25q57 0 98 16.5t78 57.5q37 39 61.5 94t40 133t22.5 182.5t7 243.5v68.5t-2 68.5q-6 211 -6 361q0 57 1 95t3 67.5t6 56t13 61.5l135 29q-6 -39 -8.5 -59.5t-2.5 -42.5q0 -49 7.5 -108.5t23.5 -162.5q18 -111 31.5 -194.5t22 -149 t11.5 -119t3 -104.5q0 -379 -142 -565q-143 -193 -383 -193q-143 0 -233 39q-35 16 -66.5 45t-76.5 88zM285 731q0 381 139 565q143 193 385 193q70 0 129 -9.5t102 -27.5q37 -16 68 -45t76 -88l-162 -107q-35 66 -77 90.5t-118 24.5q-57 0 -97 -16.5t-77 -57.5t-61.5 -95 t-40.5 -132t-23.5 -182.5t-7.5 -241.5v-69.5t2 -69.5q4 -106 6 -196.5t2 -164.5q0 -57 -1 -95t-4 -68.5t-7 -58t-12 -64.5l-133 -23q4 37 6 58.5t2 42.5q0 51 -7 109t-24 161q-18 109 -31.5 191.5t-20.5 149t-10 121t-3 105.5z" />
<glyph unicode="&#xa8;" horiz-adv-x="1042" d="M317 1159q0 49 39 85t93 36q43 0 73.5 -35t30.5 -82q0 -49 -38 -85t-93 -36q-43 0 -74 35t-31 82zM647 1159q0 51 38 86t91 35q43 0 74 -35t31 -82q0 -49 -38 -84t-93 -35q-43 0 -73 34t-30 81z" />
<glyph unicode="&#xa9;" horiz-adv-x="2066" d="M182 500q0 174 66.5 327.5t180.5 267t266.5 179t326.5 65.5t327.5 -65.5t267.5 -179t180.5 -267t66.5 -327.5t-66.5 -328t-180.5 -267.5t-267.5 -179t-327.5 -65.5t-326.5 65.5t-266.5 179t-180.5 267.5t-66.5 328zM375 500q0 -135 51 -253t139 -206t206 -139.5 t251 -51.5q135 0 254 51.5t206 139.5t138 206t51 253t-51 252.5t-138 206t-206 139.5t-254 51q-133 0 -251 -51t-206 -139.5t-139 -206t-51 -252.5zM530 410q0 123 44 229t122 185t183.5 124t226.5 45q90 0 162 -22q39 -12 71.5 -30.5t92.5 -59.5l-123 -154 q-59 35 -102.5 48t-98.5 13q-72 0 -131 -27.5t-103.5 -76.5t-69 -115.5t-24.5 -146.5q0 -223 211 -223q29 0 58.5 4t52.5 10q20 6 43.5 17.5t85.5 41.5l80 -172q-23 -12 -39.5 -20t-28.5 -14q-127 -57 -272 -58q-100 0 -181 29t-138.5 81t-89.5 125.5t-32 166.5z" />
<glyph unicode="&#xaa;" horiz-adv-x="741" d="M39 926q0 135 57.5 252.5t155.5 181.5q47 29 95 40t120 11q25 0 45 -1t48 -4t66 -8t93 -14l-107 -657h-184l23 137q-23 -29 -52.5 -56.5t-63.5 -49t-72 -35.5t-77 -14q-70 0 -108.5 62.5t-38.5 154.5zM252 971q0 -35 6 -56.5t23 -21.5q14 0 41.5 20.5t60.5 61.5 q41 51 67.5 105.5t34.5 107.5l13 74q-12 4 -20.5 4h-20.5q-39 0 -76 -23.5t-65.5 -63.5t-46 -93.5t-17.5 -114.5z" />
<glyph unicode="&#xab;" horiz-adv-x="1146" d="M61 463l566 399l-39 -244l-232 -155l183 -154l-39 -246zM549 463l567 399l-39 -244l-231 -155l182 -154l-39 -246z" />
<glyph unicode="&#xac;" d="M51 557v168h856h168v-168v-334h-168v334h-856z" />
<glyph unicode="&#xad;" horiz-adv-x="565" d="M57 356l39 228h428l-37 -228h-430z" />
<glyph unicode="&#xae;" horiz-adv-x="2004" d="M158 498q0 174 65.5 326.5t179 266t267 180t327.5 66.5t328 -66.5t267.5 -180t179 -266t65.5 -326.5t-65.5 -328t-179 -267.5t-267.5 -180t-328 -66.5t-327.5 66.5t-267 180t-179 267.5t-65.5 328zM348 498q0 -135 51.5 -253t139.5 -206t205.5 -139.5t252.5 -51.5 t253 51.5t206 139.5t139.5 206t51.5 253t-51.5 252.5t-139.5 205.5t-205.5 139.5t-253.5 51.5q-135 0 -252.5 -51.5t-205.5 -139.5t-139.5 -205.5t-51.5 -252.5zM594 12l154 967h352q336 0 336 -242q0 -141 -76 -234t-207 -110l166 -381h-248l-153 373h-44l-57 -373h-223z M899 528h102q39 0 75 13.5t62.5 36t42 53t15.5 65.5q0 57 -36 83t-113 26h-105z" />
<glyph unicode="&#xaf;" horiz-adv-x="831" d="M489 1104l41 129h560l-41 -129h-560z" />
<glyph unicode="&#xb0;" horiz-adv-x="681" d="M264 1112q0 53 22.5 100.5t60.5 83t89 56t111 20.5q45 0 85 -18.5t68.5 -51t46 -76.5t17.5 -93q0 -53 -22.5 -101.5t-61.5 -84.5t-91 -56.5t-112 -20.5q-43 0 -82 19.5t-68.5 52.5t-46 77t-16.5 93zM385 1120q0 -53 34 -91t81 -38q59 0 101 39t42 94q0 53 -34 90t-81 37 q-59 0 -101 -38.5t-42 -92.5z" />
<glyph unicode="&#xb1;" d="M78 0v168h971v-168h-971zM78 532v168h401v320h168v-320h402v-168h-402v-319h-168v319h-401z" />
<glyph unicode="&#xb2;" horiz-adv-x="614" d="M0 727l16 100l209 150q61 45 97 76.5t59 62.5q39 57 39 94q0 18 -16.5 32.5t-51.5 14.5q-14 0 -30.5 -4t-38 -14t-52 -26.5t-71.5 -43.5l-97 148q84 45 166 74.5t181 29.5q106 0 163.5 -48t57.5 -140q0 -80 -39 -145.5t-121 -124.5l-117 -86h244l-27 -150h-571z" />
<glyph unicode="&#xb3;" horiz-adv-x="587" d="M-78 481l76 150q23 -12 34 -17.5t17 -9.5q18 -6 46 -11t48 -5q39 0 76 16.5t63.5 46t43 67.5t16.5 81q0 84 -111 84h-100l33 133q88 27 143 80t55 102q0 23 -17 40t-38 17q-31 0 -70.5 -13t-105.5 -48l-68 129q72 43 144 68.5t162 25.5q96 0 151 -49t55 -141 q0 -78 -40.5 -139.5t-112.5 -96.5q68 -10 99.5 -60t31.5 -130q0 -78 -33 -146.5t-88 -119t-130 -80t-159 -29.5q-20 0 -40.5 2t-43.5 6q-37 8 -62.5 16.5t-74.5 30.5z" />
<glyph unicode="&#xb4;" horiz-adv-x="784" d="M147 1059l248 336h244l-285 -336h-207z" />
<glyph unicode="&#xb6;" horiz-adv-x="1318" d="M72 -399l98 168q78 -51 130 -72t106 -21q10 0 25 1t38 4l129 821l-63 2q-84 2 -158 34.5t-129 88t-87 129t-32 159.5q0 143 76 279q51 94 143 178q84 72 170 103.5t201 31.5h661q4 0 12.5 -1t18.5 -1q20 -2 33.5 -3t26 -4t26.5 -7t33 -10l-66 -199q-33 16 -58.5 21.5 t-53.5 5.5h-66l-205 -1282q-86 -539 -616 -539q-84 0 -154 14q-29 6 -54.5 13.5t-53 17.5t-59 26.5t-72.5 41.5zM674 -289q45 29 66.5 50.5t41.5 50.5q82 125 117 340l186 1157h-153z" />
<glyph unicode="&#xb7;" horiz-adv-x="512" d="M111 479q0 68 52 117t128 49q59 0 102 -47t43 -115q0 -70 -53 -119t-129 -49q-59 0 -101 48.5t-42 115.5z" />
<glyph unicode="&#xb8;" horiz-adv-x="909" d="M287 -438l51 104q57 -25 92 -35t66 -10q35 0 58.5 21.5t23.5 54.5q0 47 -32 65.5t-104 18.5h-65l117 192h102l-64 -114q72 0 112 -40t40 -116q0 -82 -54.5 -134t-140.5 -52q-20 0 -37.5 2t-40 6t-52 13t-72.5 24z" />
<glyph unicode="&#xb9;" horiz-adv-x="522" d="M47 1294l361 127h102l-115 -694h-202l77 475l-172 -65z" />
<glyph unicode="&#xba;" horiz-adv-x="741" d="M59 981q0 94 29 174t81 137.5t125 89t159 31.5q127 0 191.5 -72.5t64.5 -207.5q0 -84 -29 -164q-14 -35 -33.5 -70t-46.5 -63q-59 -70 -124.5 -98.5t-158.5 -28.5q-125 0 -191.5 71.5t-66.5 200.5zM266 981q0 -59 21.5 -91t46.5 -32q27 0 53 21q51 41 82 109t31 140 q0 66 -20.5 97.5t-45.5 31.5q-27 0 -58.5 -25.5t-60.5 -72.5q-23 -41 -36 -87t-13 -91z" />
<glyph unicode="&#xbb;" horiz-adv-x="1146" d="M49 63l39 246l229 154l-180 155l39 244l438 -399zM539 63l39 246l229 154l-180 155l37 244l440 -399z" />
<glyph unicode="&#xbc;" horiz-adv-x="1740" d="M129 -90l1159 1493h193l-1157 -1493h-195zM160 1294l360 127h103l-115 -694h-201l76 475l-172 -65zM807 -2l12 82l496 620h168l-88 -550h88l-25 -152h-88l-47 -289h-195l48 289h-369zM1065 150h135l33 196l2 19q-18 -27 -47 -64t-55.5 -70.5t-46.5 -56.5z" />
<glyph unicode="&#xbd;" horiz-adv-x="1740" d="M129 -90l1159 1493h193l-1157 -1493h-195zM160 1294l360 127h103l-115 -694h-201l76 475l-172 -65zM983 0l16 100l209 150q61 43 96 75.5t58 63.5q39 55 39 92q0 20 -16.5 33.5t-49.5 13.5q-14 0 -30.5 -4t-38 -13t-52 -25.5t-71.5 -43.5l-96 148q82 43 164.5 73.5 t181.5 30.5q104 0 161.5 -49t57.5 -141q0 -80 -39 -144.5t-121 -123.5l-117 -86h244l-25 -150h-571z" />
<glyph unicode="&#xbe;" horiz-adv-x="1740" d="M66 481l75 150q23 -12 34 -17.5t18 -9.5q18 -6 45.5 -11t48.5 -5q39 0 75.5 16.5t63.5 46t43 67.5t16 81q0 84 -110 84h-101l33 133q88 27 143.5 80t55.5 102q0 23 -17.5 40t-37.5 17q-31 0 -71 -13t-106 -48l-67 129q72 43 143.5 68.5t161.5 25.5q96 0 151.5 -49 t55.5 -141q0 -78 -41 -139.5t-113 -96.5q68 -10 99.5 -60t31.5 -130q0 -78 -32.5 -146.5t-88 -119t-130 -80t-158.5 -29.5q-20 0 -41 2t-43 6q-37 8 -62.5 16.5t-74.5 30.5zM272 -90l1160 1493h192l-1157 -1493h-195zM909 -2l13 82l495 620h168l-88 -550h88l-24 -152h-88 l-48 -289h-194l47 289h-369zM1167 150h136l32 196l2 19q-18 -27 -46.5 -64t-55.5 -70.5t-47 -56.5z" />
<glyph unicode="&#xbf;" horiz-adv-x="980" d="M-47 -174q0 92 30.5 173t90.5 138q18 18 41.5 40t52.5 44q37 31 61.5 50.5t48 37t48 33.5t61.5 41q-16 23 -26.5 38t-21.5 28.5t-25.5 28l-34.5 34.5l174 117q49 -49 74.5 -77t47.5 -60q29 -35 48.5 -71t48.5 -102q-47 -27 -80 -47t-61.5 -38.5t-58.5 -38t-66 -45.5 q-31 -23 -56.5 -43.5t-46.5 -38.5q-45 -43 -71.5 -102.5t-26.5 -119.5q0 -63 39 -98t108 -35q106 0 211 99q-12 18 -19 31.5t-15.5 25.5t-16.5 25.5t-20 31.5l180 90q37 -31 61.5 -55t38.5 -45.5t19.5 -41t5.5 -44.5q0 -59 -43 -115.5t-114 -99.5t-162 -69.5t-189 -26.5 q-164 0 -250 78.5t-86 228.5zM383 864q0 70 53 118t129 48q59 0 101.5 -47t42.5 -115q0 -70 -52.5 -118t-126.5 -48q-61 0 -104 47.5t-43 114.5z" />
<glyph unicode="&#xc0;" horiz-adv-x="1218" d="M-59 0l700 1352h236l274 -1352h-270l-54 334h-454l-162 -334h-270zM463 1655h229l156 -242h-191zM479 553h312l-80 489z" />
<glyph unicode="&#xc1;" horiz-adv-x="1218" d="M-59 0l700 1352h236l274 -1352h-270l-54 334h-454l-162 -334h-270zM479 553h312l-80 489zM637 1413l231 242h230l-271 -242h-190z" />
<glyph unicode="&#xc2;" horiz-adv-x="1218" d="M-59 0l700 1352h236l274 -1352h-270l-54 334h-454l-162 -334h-270zM440 1415l269 240h161l193 -240h-178l-113 133l-154 -133h-178zM479 553h312l-80 489z" />
<glyph unicode="&#xc3;" horiz-adv-x="1218" d="M-59 0l700 1352h236l274 -1352h-270l-54 334h-454l-162 -334h-270zM365 1538q55 33 80.5 46t54.5 26q35 14 68.5 22t64.5 8q6 0 12 -1t10 -1q41 -4 76 -22q10 -6 28.5 -17.5t47.5 -27.5q29 -18 52.5 -25.5t45.5 -7.5q20 0 39 3t38 11.5t46 22.5t64 39l51 -109 q-41 -35 -66.5 -50t-66.5 -32q-84 -33 -150 -32q-76 0 -170 55q-43 27 -62.5 33t-45.5 6q-33 0 -59.5 -8.5t-76.5 -36.5q-10 -6 -30 -19zM479 553h312l-80 489z" />
<glyph unicode="&#xc4;" horiz-adv-x="1218" d="M-59 0l700 1352h236l274 -1352h-270l-54 334h-454l-162 -334h-270zM479 553h312l-80 489zM494 1522q0 47 35.5 80.5t86.5 33.5q41 0 71 -31.5t30 -78.5t-37 -81t-88 -34q-41 0 -69.5 33t-28.5 78zM829 1518q0 47 35 79.5t88 32.5q41 0 71 -31.5t30 -76.5q0 -47 -37 -81 t-88 -34q-41 0 -70 31.5t-29 79.5z" />
<glyph unicode="&#xc5;" horiz-adv-x="1218" d="M-59 0l700 1352h236l274 -1352h-270l-54 334h-454l-162 -334h-270zM479 553h312l-80 489zM575 1573q0 41 17.5 78t47.5 64.5t69 43t84 15.5q74 0 126 -56.5t52 -138.5q0 -41 -17.5 -78t-47 -64.5t-70.5 -43t-86 -15.5q-37 0 -69 15.5t-55.5 41t-37 61.5t-13.5 77z M688 1575q0 -35 21.5 -59.5t54.5 -24.5q39 0 66.5 25.5t27.5 60.5t-22.5 59.5t-53.5 24.5q-41 0 -67.5 -25.5t-26.5 -60.5z" />
<glyph unicode="&#xc6;" horiz-adv-x="1626" d="M-102 0l858 1352h927l-34 -219h-549l-51 -334h444l-35 -219h-448l-52 -361h566l-29 -219h-821l49 297h-373l-188 -297h-264zM487 514h271l59 387l51 258l-90 -180z" />
<glyph unicode="&#xc7;" horiz-adv-x="1239" d="M84 573q0 92 22.5 181.5t63.5 175.5q78 152 209 262q115 98 239.5 141t290.5 43q135 0 235.5 -32.5t182.5 -102.5l-125 -197q-113 92 -295 93q-113 0 -210 -42t-168.5 -117t-112.5 -175.5t-41 -216.5q0 -172 108.5 -271.5t294.5 -99.5q78 0 148.5 15.5t173.5 52.5 l12 -226q-66 -29 -104.5 -41t-87.5 -22q-45 -10 -85 -13.5t-116 -7.5l-84 -116q143 -6 143 -133q0 -45 -19.5 -86t-52 -72t-76.5 -49.5t-91 -18.5q-86 0 -213 53l59 111q45 -23 80 -31t65 -8q39 0 65 26.5t26 67.5q0 37 -18.5 49.5t-76.5 12.5h-92l156 203q-68 10 -118 23 t-90 31.5t-74 45.5t-68 63q-156 162 -156 428z" />
<glyph unicode="&#xc8;" horiz-adv-x="1103" d="M121 0l213 1352h825l-35 -219h-567l-53 -334h463l-33 -219h-465l-57 -361h585l-26 -219h-850zM506 1655h227l156 -242h-191z" />
<glyph unicode="&#xc9;" horiz-adv-x="1103" d="M121 0l213 1352h825l-35 -219h-567l-53 -334h463l-33 -219h-465l-57 -361h585l-26 -219h-850zM647 1413l232 242h227l-268 -242h-191z" />
<glyph unicode="&#xca;" horiz-adv-x="1103" d="M121 0l213 1352h825l-35 -219h-567l-53 -334h463l-33 -219h-465l-57 -361h585l-26 -219h-850zM483 1415l269 240h161l191 -240h-176l-113 133l-153 -133h-179z" />
<glyph unicode="&#xcb;" horiz-adv-x="1103" d="M121 0l213 1352h825l-35 -219h-567l-53 -334h463l-33 -219h-465l-57 -361h585l-26 -219h-850zM475 1522q0 47 36 80.5t87 33.5q41 0 70.5 -31.5t29.5 -78.5t-35.5 -81t-89.5 -34q-41 0 -69.5 33t-28.5 78zM834 1518q0 47 35.5 79.5t86.5 32.5q41 0 71 -31.5t30 -76.5 q0 -47 -36 -81t-89 -34q-41 0 -69.5 31.5t-28.5 79.5z" />
<glyph unicode="&#xcc;" horiz-adv-x="614" d="M115 0l213 1352h258l-215 -1352h-256zM229 1655h228l155 -242h-190z" />
<glyph unicode="&#xcd;" horiz-adv-x="614" d="M115 0l213 1352h258l-215 -1352h-256zM311 1413l232 242h229l-270 -242h-191z" />
<glyph unicode="&#xce;" horiz-adv-x="614" d="M115 0l213 1352h258l-215 -1352h-256zM162 1415l268 240h162l190 -240h-176l-112 133l-154 -133h-178z" />
<glyph unicode="&#xcf;" horiz-adv-x="614" d="M115 0l213 1352h258l-215 -1352h-256zM203 1526q0 47 34.5 79.5t88.5 32.5q41 0 69.5 -31.5t28.5 -76.5q0 -47 -36 -81t-87 -34q-41 0 -69.5 32t-28.5 79zM537 1522q0 47 35.5 79.5t86.5 32.5q43 0 72 -31.5t29 -78.5t-36 -80t-87 -33q-41 0 -70.5 32t-29.5 79z" />
<glyph unicode="&#xd0;" horiz-adv-x="1456" d="M47 616l27 177h223l90 559h502q96 0 173 -11.5t139.5 -35t112.5 -61.5t91 -91q74 -94 101 -217t7 -256q-23 -135 -91 -260t-173 -221q-217 -199 -577 -199h-500l98 616h-223zM479 227h205q231 0 372.5 117t176.5 334q18 117 -7.5 215t-88.5 151q-47 41 -124 60.5 t-188 19.5h-204l-54 -331h301l-26 -177h-301z" />
<glyph unicode="&#xd1;" horiz-adv-x="1554" d="M131 0l213 1352h295l408 -850q16 -37 34 -88q6 -20 10.5 -36t7.5 -31t6 -33.5t7 -43.5l25 297l123 785h247l-213 -1352h-276l-395 784q-12 25 -22.5 49.5t-20.5 53.5q-10 25 -16.5 45t-11.5 41.5t-9 47.5t-11 60l-26 -243l-125 -838h-250zM537 1540q55 33 80.5 46 t54.5 26q35 14 68.5 22t64.5 8q6 0 12 -1t10 -1q41 -4 76 -22q10 -6 28.5 -17.5t47.5 -27.5q29 -18 52.5 -25.5t45.5 -7.5q20 0 39 3t38.5 11.5t46 22.5t63.5 39l51 -109q-41 -35 -66.5 -50t-66.5 -32q-84 -33 -150 -32q-76 0 -170 55q-43 27 -62.5 33t-45.5 6 q-33 0 -59.5 -8.5t-76.5 -36.5q-10 -6 -30 -19z" />
<glyph unicode="&#xd2;" horiz-adv-x="1562" d="M96 565q0 29 2 55.5t6 55.5q25 158 95.5 287t178 221t248 142t300.5 50q143 0 260 -41t197.5 -117.5t124.5 -186.5t44 -245q0 -170 -64.5 -318.5t-177 -258t-263 -173t-324.5 -63.5q-141 0 -257 42t-198 120t-127 186.5t-45 243.5zM375 567q0 -84 26.5 -152.5 t73.5 -119.5t112.5 -79t145.5 -28q111 0 209 47.5t172 128t117 189t43 231.5q0 82 -26.5 152t-76 120t-116 77.5t-146.5 27.5q-111 0 -208 -47t-169.5 -128t-114.5 -188.5t-42 -230.5zM680 1655h227l156 -242h-191z" />
<glyph unicode="&#xd3;" horiz-adv-x="1562" d="M96 565q0 29 2 55.5t6 55.5q25 158 95.5 287t178 221t248 142t300.5 50q143 0 260 -41t197.5 -117.5t124.5 -186.5t44 -245q0 -170 -64.5 -318.5t-177 -258t-263 -173t-324.5 -63.5q-141 0 -257 42t-198 120t-127 186.5t-45 243.5zM375 567q0 -84 26.5 -152.5 t73.5 -119.5t112.5 -79t145.5 -28q111 0 209 47.5t172 128t117 189t43 231.5q0 82 -26.5 152t-76 120t-116 77.5t-146.5 27.5q-111 0 -208 -47t-169.5 -128t-114.5 -188.5t-42 -230.5zM799 1413l231 242h230l-271 -242h-190z" />
<glyph unicode="&#xd4;" horiz-adv-x="1562" d="M96 565q0 29 2 55.5t6 55.5q25 158 95.5 287t178 221t248 142t300.5 50q143 0 260 -41t197.5 -117.5t124.5 -186.5t44 -245q0 -170 -64.5 -318.5t-177 -258t-263 -173t-324.5 -63.5q-141 0 -257 42t-198 120t-127 186.5t-45 243.5zM375 567q0 -84 26.5 -152.5 t73.5 -119.5t112.5 -79t145.5 -28q111 0 209 47.5t172 128t117 189t43 231.5q0 82 -26.5 152t-76 120t-116 77.5t-146.5 27.5q-111 0 -208 -47t-169.5 -128t-114.5 -188.5t-42 -230.5zM627 1415l268 240h162l192 -240h-178l-113 133l-153 -133h-178z" />
<glyph unicode="&#xd5;" horiz-adv-x="1562" d="M96 565q0 29 2 55.5t6 55.5q25 158 95.5 287t178 221t248 142t300.5 50q143 0 260 -41t197.5 -117.5t124.5 -186.5t44 -245q0 -170 -64.5 -318.5t-177 -258t-263 -173t-324.5 -63.5q-141 0 -257 42t-198 120t-127 186.5t-45 243.5zM375 567q0 -84 26.5 -152.5 t73.5 -119.5t112.5 -79t145.5 -28q111 0 209 47.5t172 128t117 189t43 231.5q0 82 -26.5 152t-76 120t-116 77.5t-146.5 27.5q-111 0 -208 -47t-169.5 -128t-114.5 -188.5t-42 -230.5zM565 1575q55 33 81 46t54 26q35 14 69 22t65 8q6 0 12 -1t10 -1q41 -4 76 -22 q10 -6 28.5 -17.5t47.5 -27.5q29 -18 52 -25.5t46 -7.5q20 0 38.5 3t38 11t46 22.5t63.5 39.5l51 -109q-41 -35 -66.5 -50t-66.5 -32q-84 -33 -149 -33q-76 0 -170 56q-43 27 -62.5 33t-46.5 6q-33 0 -59.5 -8.5t-75.5 -36.5q-10 -6 -31 -19z" />
<glyph unicode="&#xd6;" horiz-adv-x="1562" d="M96 565q0 29 2 55.5t6 55.5q25 158 95.5 287t178 221t248 142t300.5 50q143 0 260 -41t197.5 -117.5t124.5 -186.5t44 -245q0 -170 -64.5 -318.5t-177 -258t-263 -173t-324.5 -63.5q-141 0 -257 42t-198 120t-127 186.5t-45 243.5zM375 567q0 -84 26.5 -152.5 t73.5 -119.5t112.5 -79t145.5 -28q111 0 209 47.5t172 128t117 189t43 231.5q0 82 -26.5 152t-76 120t-116 77.5t-146.5 27.5q-111 0 -208 -47t-169.5 -128t-114.5 -188.5t-42 -230.5zM610 1520q0 47 36 79.5t87 32.5q41 0 71 -31.5t30 -76.5q0 -47 -36 -81t-89 -34 q-41 0 -70 32t-29 79zM1087 1520q0 47 36 80.5t87 33.5q41 0 71 -31.5t30 -78.5t-36 -81t-87 -34q-41 0 -71 32t-30 79z" />
<glyph unicode="&#xd7;" d="M63 82l381 381l-381 381l119 119l381 -381l381 381l119 -119l-381 -381l381 -381l-119 -119l-381 381l-381 -381z" />
<glyph unicode="&#xd8;" horiz-adv-x="1562" d="M8 90l174 143q-47 90 -66.5 164t-19.5 162q0 174 63.5 323.5t174 259t262.5 172t328 62.5q285 0 444 -145l158 133l106 -113l-166 -139q45 -72 65.5 -150.5t20.5 -173.5q0 -170 -64.5 -318t-176 -259t-263 -174.5t-323.5 -63.5q-252 0 -444 150l-168 -148zM375 567 q0 -47 5 -79.5t19 -67.5l762 637q-55 51 -114.5 73.5t-133.5 22.5q-111 0 -209 -46t-171.5 -126t-115.5 -186.5t-42 -227.5zM487 291q109 -92 250 -92q111 0 208 46t171 126t116 186t42 227q0 45 -5 76t-20 70z" />
<glyph unicode="&#xd9;" horiz-adv-x="1433" d="M152 350q0 94 14 178l131 824h262l-133 -838q-4 -23 -6 -45.5t-2 -38.5q0 -111 62.5 -163t197.5 -52q154 0 247 77t115 224l134 836h262l-131 -824q-16 -96 -36 -166.5t-49.5 -124t-71.5 -93.5t-99 -74q-84 -51 -175.5 -74t-218.5 -23q-240 0 -371.5 98.5t-131.5 278.5z M614 1655h230l155 -242h-190z" />
<glyph unicode="&#xda;" horiz-adv-x="1433" d="M152 350q0 94 14 178l131 824h262l-133 -838q-4 -23 -6 -45.5t-2 -38.5q0 -111 62.5 -163t197.5 -52q154 0 247 77t115 224l134 836h262l-131 -824q-16 -96 -36 -166.5t-49.5 -124t-71.5 -93.5t-99 -74q-84 -51 -175.5 -74t-218.5 -23q-240 0 -371.5 98.5t-131.5 278.5z M743 1413l232 242h229l-270 -242h-191z" />
<glyph unicode="&#xdb;" horiz-adv-x="1433" d="M152 350q0 94 14 178l131 824h262l-133 -838q-4 -23 -6 -45.5t-2 -38.5q0 -111 62.5 -163t197.5 -52q154 0 247 77t115 224l134 836h262l-131 -824q-16 -96 -36 -166.5t-49.5 -124t-71.5 -93.5t-99 -74q-84 -51 -175.5 -74t-218.5 -23q-240 0 -371.5 98.5t-131.5 278.5z M571 1417l267 240h163l191 -240h-176l-113 133l-153 -133h-179z" />
<glyph unicode="&#xdc;" horiz-adv-x="1433" d="M152 350q0 94 14 178l131 824h262l-133 -838q-4 -23 -6 -45.5t-2 -38.5q0 -111 62.5 -163t197.5 -52q154 0 247 77t115 224l134 836h262l-131 -824q-16 -96 -36 -166.5t-49.5 -124t-71.5 -93.5t-99 -74q-84 -51 -175.5 -74t-218.5 -23q-240 0 -371.5 98.5t-131.5 278.5z M547 1522q0 47 35.5 80.5t87.5 33.5q41 0 70.5 -31.5t29.5 -78.5t-36 -81t-89 -34q-41 0 -69.5 33t-28.5 78zM987 1518q0 47 35 79.5t88 32.5q41 0 70.5 -31.5t29.5 -76.5q0 -47 -36.5 -81t-88.5 -34q-41 0 -69.5 31.5t-28.5 79.5z" />
<glyph unicode="&#xdd;" d="M219 1352h283l186 -529l369 529h282l-573 -772l-92 -580h-258l92 580zM684 1413l234 242h227l-271 -242h-190z" />
<glyph unicode="&#xde;" horiz-adv-x="1138" d="M184 0l215 1352h258l-34 -209h204q133 0 211 -25.5t131 -85.5q97 -113 66 -303q-16 -113 -70.5 -206t-140.5 -158q-82 -61 -180.5 -89t-237.5 -28q-39 0 -64.5 1t-58.5 5l-41 -254h-258zM518 473q29 -2 59.5 -3t61.5 -1q152 0 230 57.5t98 182.5q16 111 -31 163t-168 52 h-180z" />
<glyph unicode="&#xdf;" horiz-adv-x="1144" d="M-336 -438l84 207q25 -10 43.5 -16.5t30.5 -10.5q68 -25 102 -25q41 0 83 23.5t63 60.5q23 37 44 116t31 161l97 694h-193l27 168l194 12l31 195q14 96 54 175t98.5 134t133.5 85t161 30q78 0 144 -26.5t114.5 -74t76 -110.5t27.5 -139q0 -94 -37 -173t-127 -174 q-25 -27 -41 -45t-26.5 -31.5t-18.5 -24.5t-16 -25q-14 -29 -15 -54q0 -37 52 -86l92 -84q135 -123 135 -243q0 -135 -91 -216t-245 -81q-37 0 -67.5 4t-62.5 14t-71 28.5t-92 47.5l68 180q16 -10 27.5 -16t21.5 -11q4 -2 20.5 -8t47.5 -18q47 -18 65.5 -23.5t34.5 -5.5 q74 0 74 76q0 23 -11 47q-16 33 -51 68q-47 49 -98 104q-41 45 -60 72q-16 25 -25 62.5t-9 70.5q0 66 32.5 128t114.5 154q39 45 64.5 75t41 50.5t24.5 36t16 31.5q14 29 14 74q0 72 -39 116.5t-102 44.5q-94 0 -148.5 -70.5t-77.5 -221.5l-168 -1145 q-31 -209 -144.5 -318.5t-295.5 -109.5q-29 0 -56.5 2t-56 7t-62.5 12t-77 20z" />
<glyph unicode="&#xe0;" horiz-adv-x="1058" d="M78 274q0 98 20.5 192.5t59.5 176.5t93 148.5t122 111.5q63 41 128.5 57.5t166.5 16.5q33 0 62.5 -1t66.5 -5t85 -11.5t119 -19.5l-145 -940h-219l43 270q-31 -43 -53.5 -72.5t-44 -53t-45 -44t-52.5 -41.5q-55 -41 -112.5 -63.5t-106.5 -22.5q-84 0 -136 84t-52 217z M338 342q0 -66 16.5 -101.5t46.5 -35.5q29 0 73 35.5t91 95.5q59 78 98 162t52 164l20 133q-29 6 -44 8t-38 2q-63 0 -120.5 -38t-100.5 -101.5t-68.5 -147.5t-25.5 -176zM438 1395h203l141 -336h-164z" />
<glyph unicode="&#xe1;" horiz-adv-x="1058" d="M78 274q0 98 20.5 192.5t59.5 176.5t93 148.5t122 111.5q63 41 128.5 57.5t166.5 16.5q33 0 62.5 -1t66.5 -5t85 -11.5t119 -19.5l-145 -940h-219l43 270q-31 -43 -53.5 -72.5t-44 -53t-45 -44t-52.5 -41.5q-55 -41 -112.5 -63.5t-106.5 -22.5q-84 0 -136 84t-52 217z M338 342q0 -66 16.5 -101.5t46.5 -35.5q29 0 73 35.5t91 95.5q59 78 98 162t52 164l20 133q-29 6 -44 8t-38 2q-63 0 -120.5 -38t-100.5 -101.5t-68.5 -147.5t-25.5 -176zM522 1059l246 336h246l-287 -336h-205z" />
<glyph unicode="&#xe2;" horiz-adv-x="1058" d="M78 274q0 98 20.5 192.5t59.5 176.5t93 148.5t122 111.5q63 41 128.5 57.5t166.5 16.5q33 0 62.5 -1t66.5 -5t85 -11.5t119 -19.5l-145 -940h-219l43 270q-31 -43 -53.5 -72.5t-44 -53t-45 -44t-52.5 -41.5q-55 -41 -112.5 -63.5t-106.5 -22.5q-84 0 -136 84t-52 217z M338 342q0 -66 16.5 -101.5t46.5 -35.5q29 0 73 35.5t91 95.5q59 78 98 162t52 164l20 133q-29 6 -44 8t-38 2q-63 0 -120.5 -38t-100.5 -101.5t-68.5 -147.5t-25.5 -176zM383 1057l281 336h163l177 -336h-179l-102 186l-164 -186h-176z" />
<glyph unicode="&#xe3;" horiz-adv-x="1058" d="M78 274q0 98 20.5 192.5t59.5 176.5t93 148.5t122 111.5q63 41 128.5 57.5t166.5 16.5q33 0 62.5 -1t66.5 -5t85 -11.5t119 -19.5l-145 -940h-219l43 270q-31 -43 -53.5 -72.5t-44 -53t-45 -44t-52.5 -41.5q-55 -41 -112.5 -63.5t-106.5 -22.5q-84 0 -136 84t-52 217z M303 1194q55 33 81 46t54 26q35 14 69 22t64 8q6 0 12.5 -1t10.5 -1q41 -4 76 -22q10 -6 28.5 -17.5t46.5 -27.5q29 -18 52.5 -25.5t46.5 -7.5q20 0 38.5 3t38 11.5t46 22.5t63.5 39l51 -109q-41 -35 -66.5 -50t-66.5 -32q-84 -33 -149 -32q-76 0 -170 55q-43 27 -62.5 33 t-46.5 6q-33 0 -59.5 -8.5t-75.5 -36.5q-10 -6 -31 -19zM338 342q0 -66 16.5 -101.5t46.5 -35.5q29 0 73 35.5t91 95.5q59 78 98 162t52 164l20 133q-29 6 -44 8t-38 2q-63 0 -120.5 -38t-100.5 -101.5t-68.5 -147.5t-25.5 -176z" />
<glyph unicode="&#xe4;" horiz-adv-x="1058" d="M78 274q0 98 20.5 192.5t59.5 176.5t93 148.5t122 111.5q63 41 128.5 57.5t166.5 16.5q33 0 62.5 -1t66.5 -5t85 -11.5t119 -19.5l-145 -940h-219l43 270q-31 -43 -53.5 -72.5t-44 -53t-45 -44t-52.5 -41.5q-55 -41 -112.5 -63.5t-106.5 -22.5q-84 0 -136 84t-52 217z M338 342q0 -66 16.5 -101.5t46.5 -35.5q29 0 73 35.5t91 95.5q59 78 98 162t52 164l20 133q-29 6 -44 8t-38 2q-63 0 -120.5 -38t-100.5 -101.5t-68.5 -147.5t-25.5 -176zM442 1159q0 49 38 85t91 36q45 0 76 -35t31 -82q0 -49 -39 -85t-92 -36q-43 0 -74 35t-31 82z M770 1159q0 51 39 86t92 35q43 0 74 -35t31 -82q0 -49 -39 -84t-93 -35q-43 0 -73.5 34t-30.5 81z" />
<glyph unicode="&#xe5;" horiz-adv-x="1058" d="M78 274q0 98 20.5 192.5t59.5 176.5t93 148.5t122 111.5q63 41 128.5 57.5t166.5 16.5q33 0 62.5 -1t66.5 -5t85 -11.5t119 -19.5l-145 -940h-219l43 270q-31 -43 -53.5 -72.5t-44 -53t-45 -44t-52.5 -41.5q-55 -41 -112.5 -63.5t-106.5 -22.5q-84 0 -136 84t-52 217z M338 342q0 -66 16.5 -101.5t46.5 -35.5q29 0 73 35.5t91 95.5q59 78 98 162t52 164l20 133q-29 6 -44 8t-38 2q-63 0 -120.5 -38t-100.5 -101.5t-68.5 -147.5t-25.5 -176zM532 1223q0 41 17.5 77.5t47.5 64.5t69 43t84 15q74 0 126 -56t52 -138q0 -41 -17.5 -78t-47 -64.5 t-70.5 -43t-86 -15.5q-37 0 -69 15.5t-55.5 41t-37 61.5t-13.5 77zM645 1225q0 -35 21.5 -59.5t54.5 -24.5q39 0 66.5 25.5t27.5 60.5t-22.5 59.5t-53.5 24.5q-41 0 -67.5 -25.5t-26.5 -60.5z" />
<glyph unicode="&#xe6;" horiz-adv-x="1476" d="M78 274q0 150 42 278t116.5 222t176 148.5t218.5 54.5q39 0 84 -4t123 -15l61 -8l-27 -149q29 53 49.5 77.5t55.5 47.5q41 29 90 42t115 13q270 0 270 -199q0 -80 -40 -137t-130 -104l-412 -219q4 -35 9.5 -53.5t15.5 -32.5q14 -23 41 -36.5t51 -13.5q20 0 53 7.5 t64 19.5q20 8 38.5 18.5t42 25.5t56.5 38.5t82 60.5l94 -145q-43 -35 -69.5 -54.5t-65.5 -47.5q-100 -72 -187 -104t-182 -32q-115 0 -190 72q-37 35 -52.5 74t-21.5 112q-82 -119 -184.5 -188.5t-198.5 -69.5q-84 0 -136 84t-52 217zM338 342q0 -66 16.5 -101.5t46.5 -35.5 q29 0 73 35.5t91 95.5q59 78 98 162t52 164l20 133q-29 6 -44 8t-38 2q-63 0 -120.5 -38t-100.5 -101.5t-68.5 -147.5t-25.5 -176zM887 489l321 181q8 20 10.5 31.5t2.5 25.5q0 88 -82 88q-72 0 -138 -78q-18 -23 -32.5 -44t-27.5 -50t-26.5 -65.5t-27.5 -88.5z" />
<glyph unicode="&#xe7;" horiz-adv-x="856" d="M74 -422l59 109q45 -23 80 -31t63 -8q41 0 67 26.5t26 67.5q0 37 -18.5 49t-76.5 12h-92l135 181h-34q-98 0 -151.5 84t-53.5 237q0 143 41 267t111.5 215.5t168 142.5t211.5 51q35 0 70 -4t63 -10q29 -6 56.5 -16.5t85.5 -35.5l-101 -188q-72 41 -111.5 54.5t-76.5 13.5 q-57 0 -106.5 -34t-86 -92.5t-57 -139t-20.5 -173.5q0 -76 24.5 -118.5t65.5 -42.5q37 0 108.5 38.5t188.5 122.5l94 -145l-64 -45q-47 -33 -79.5 -55.5t-62.5 -39t-60.5 -30.5t-71.5 -29l-86 -131q143 -6 143 -133q0 -45 -19.5 -86t-52 -71.5t-76.5 -49t-91 -18.5 q-82 0 -213 55z" />
<glyph unicode="&#xe8;" horiz-adv-x="909" d="M78 311q0 147 39 271.5t109.5 212.5t170 137t217.5 49q271 0 271 -199q0 -80 -40 -137t-130 -104l-414 -219q6 -35 11 -53.5t16 -32.5q14 -23 40.5 -36.5t51.5 -13.5q20 0 53 7.5t64 19.5q20 8 38.5 18.5t42 25.5t56.5 38.5t82 60.5l94 -145q-43 -35 -69.5 -54.5 t-65.5 -47.5q-68 -47 -107 -68q-59 -33 -127.5 -50.5t-130.5 -17.5q-272 0 -272 338zM315 489l322 181q8 20 10 31.5t2 25.5q0 88 -82 88q-72 0 -137 -78q-18 -23 -32.5 -44t-28 -50t-26.5 -65.5t-28 -88.5zM391 1395h203l141 -336h-166z" />
<glyph unicode="&#xe9;" horiz-adv-x="909" d="M78 311q0 147 39 271.5t109.5 212.5t170 137t217.5 49q271 0 271 -199q0 -80 -40 -137t-130 -104l-414 -219q6 -35 11 -53.5t16 -32.5q14 -23 40.5 -36.5t51.5 -13.5q20 0 53 7.5t64 19.5q20 8 38.5 18.5t42 25.5t56.5 38.5t82 60.5l94 -145q-43 -35 -69.5 -54.5 t-65.5 -47.5q-68 -47 -107 -68q-59 -33 -127.5 -50.5t-130.5 -17.5q-272 0 -272 338zM315 489l322 181q8 20 10 31.5t2 25.5q0 88 -82 88q-72 0 -137 -78q-18 -23 -32.5 -44t-28 -50t-26.5 -65.5t-28 -88.5zM473 1059l246 336h244l-285 -336h-205z" />
<glyph unicode="&#xea;" horiz-adv-x="909" d="M78 311q0 147 39 271.5t109.5 212.5t170 137t217.5 49q271 0 271 -199q0 -80 -40 -137t-130 -104l-414 -219q6 -35 11 -53.5t16 -32.5q14 -23 40.5 -36.5t51.5 -13.5q20 0 53 7.5t64 19.5q20 8 38.5 18.5t42 25.5t56.5 38.5t82 60.5l94 -145q-43 -35 -69.5 -54.5 t-65.5 -47.5q-68 -47 -107 -68q-59 -33 -127.5 -50.5t-130.5 -17.5q-272 0 -272 338zM315 489l322 181q8 20 10 31.5t2 25.5q0 88 -82 88q-72 0 -137 -78q-18 -23 -32.5 -44t-28 -50t-26.5 -65.5t-28 -88.5zM315 1057l283 336h162l176 -336h-178l-103 186l-161 -186h-179z " />
<glyph unicode="&#xeb;" horiz-adv-x="909" d="M78 311q0 147 39 271.5t109.5 212.5t170 137t217.5 49q271 0 271 -199q0 -80 -40 -137t-130 -104l-414 -219q6 -35 11 -53.5t16 -32.5q14 -23 40.5 -36.5t51.5 -13.5q20 0 53 7.5t64 19.5q20 8 38.5 18.5t42 25.5t56.5 38.5t82 60.5l94 -145q-43 -35 -69.5 -54.5 t-65.5 -47.5q-68 -47 -107 -68q-59 -33 -127.5 -50.5t-130.5 -17.5q-272 0 -272 338zM315 489l322 181q8 20 10 31.5t2 25.5q0 88 -82 88q-72 0 -137 -78q-18 -23 -32.5 -44t-28 -50t-26.5 -65.5t-28 -88.5zM377 1159q0 49 38 85t91 36q43 0 73.5 -35t30.5 -82 q0 -49 -37.5 -85t-91.5 -36q-45 0 -74.5 35t-29.5 82zM705 1159q0 51 37.5 86t91.5 35q45 0 75.5 -35t30.5 -82q0 -49 -39 -84t-92 -35q-43 0 -73.5 34t-30.5 81z" />
<glyph unicode="&#xec;" horiz-adv-x="526" d="M86 0l145 940l248 27l-149 -967h-244zM160 1395h202l140 -336h-164z" />
<glyph unicode="&#xed;" horiz-adv-x="526" d="M86 0l145 940l248 27l-149 -967h-244zM236 1059l245 336h244l-285 -336h-204z" />
<glyph unicode="&#xee;" horiz-adv-x="526" d="M74 1057l282 336h162l176 -336h-176l-104 186l-162 -186h-178zM86 0l145 940l248 27l-149 -967h-244z" />
<glyph unicode="&#xef;" horiz-adv-x="526" d="M86 0l145 940l248 27l-149 -967h-244zM111 1159q0 49 37.5 85t91.5 36q45 0 75.5 -35t30.5 -82q0 -49 -39 -85t-92 -36q-43 0 -73.5 35t-30.5 82zM438 1159q0 51 39 86t92 35q43 0 74 -35t31 -82q0 -49 -38 -84t-93 -35q-43 0 -74 34t-31 81z" />
<glyph unicode="&#xf0;" horiz-adv-x="1114" d="M109 457q14 92 51 168.5t90 132t123.5 86t152.5 30.5q47 0 96.5 -8t98.5 -24q20 -6 33.5 -13.5t26 -14.5t25.5 -17.5t36 -24.5q0 57 -1 97t-5.5 69t-11.5 52.5t-21 45.5l-197 -102l-63 151l147 78q-37 23 -88 33t-131 10q-45 0 -70.5 -2t-68.5 -6l30 205l99 6t63 2 q141 0 232.5 -27.5t161.5 -99.5l184 94l63 -151l-151 -80q59 -119 68.5 -268.5t-13.5 -303.5q-23 -141 -73 -254.5t-123.5 -195.5t-169 -126t-205.5 -44q-106 0 -187.5 37t-131.5 103.5t-68.5 158.5t-1.5 203zM356 444q-18 -121 23 -199.5t139 -78.5q53 0 107.5 27.5 t95.5 74.5q47 55 74 130t39 169q-29 16 -46.5 28.5t-33 22t-31.5 15.5t-39 12q-31 10 -62.5 14.5t-52.5 4.5q-90 0 -143 -60.5t-70 -159.5z" />
<glyph unicode="&#xf1;" horiz-adv-x="1105" d="M86 0l145 940l248 27l-53 -267q96 143 195.5 211t216.5 68q98 0 143 -47.5t45 -151.5q0 -14 -1 -27.5t-3 -25.5l-113 -727h-243l94 608q4 20 5 43t1 37q0 63 -41 64q-76 0 -178 -113q-33 -35 -62.5 -77t-46.5 -73q-10 -16 -17 -37.5t-18 -48.5q-6 -23 -11 -38t-9 -32.5 t-7 -40t-9 -54.5l-37 -238h-244zM276 1200q55 33 81 46.5t55 25.5q35 14 68.5 22.5t64.5 8.5q6 0 12 -1.5t10 -1.5q41 -4 76 -22q10 -6 28.5 -17.5t47.5 -27.5q29 -18 52.5 -25.5t45.5 -7.5q20 0 38.5 3t38 11.5t46.5 22.5t64 39l51 -109q-41 -35 -66.5 -50t-66.5 -32 q-84 -33 -150 -32q-76 0 -170 55q-43 27 -62.5 33t-45.5 6q-33 0 -59.5 -8.5t-76.5 -36.5q-10 -6 -30 -19z" />
<glyph unicode="&#xf2;" horiz-adv-x="1021" d="M78 358q0 137 40 251t111.5 196t170 128t216.5 46q170 0 257.5 -100t87.5 -295q0 -59 -10.5 -121t-28.5 -115t-47 -101t-64 -93q-80 -96 -170 -138.5t-217 -42.5q-168 0 -257 99.5t-89 285.5zM330 358q0 -92 32.5 -149t86.5 -57q20 0 44.5 10t43.5 26q78 66 124 172.5 t46 217.5q0 98 -31 155.5t-84 57.5q-47 0 -98.5 -42t-90.5 -114q-35 -66 -54 -136.5t-19 -140.5zM401 1395h203l139 -336h-163z" />
<glyph unicode="&#xf3;" horiz-adv-x="1021" d="M78 358q0 137 40 251t111.5 196t170 128t216.5 46q170 0 257.5 -100t87.5 -295q0 -59 -10.5 -121t-28.5 -115t-47 -101t-64 -93q-80 -96 -170 -138.5t-217 -42.5q-168 0 -257 99.5t-89 285.5zM330 358q0 -92 32.5 -149t86.5 -57q20 0 44.5 10t43.5 26q78 66 124 172.5 t46 217.5q0 98 -31 155.5t-84 57.5q-47 0 -98.5 -42t-90.5 -114q-35 -66 -54 -136.5t-19 -140.5zM483 1059l246 336h244l-285 -336h-205z" />
<glyph unicode="&#xf4;" horiz-adv-x="1021" d="M78 358q0 137 40 251t111.5 196t170 128t216.5 46q170 0 257.5 -100t87.5 -295q0 -59 -10.5 -121t-28.5 -115t-47 -101t-64 -93q-80 -96 -170 -138.5t-217 -42.5q-168 0 -257 99.5t-89 285.5zM315 1057l283 336h164l176 -336h-178l-105 186l-161 -186h-179zM330 358 q0 -92 32.5 -149t86.5 -57q20 0 44.5 10t43.5 26q78 66 124 172.5t46 217.5q0 98 -31 155.5t-84 57.5q-47 0 -98.5 -42t-90.5 -114q-35 -66 -54 -136.5t-19 -140.5z" />
<glyph unicode="&#xf5;" horiz-adv-x="1021" d="M78 358q0 137 40 251t111.5 196t170 128t216.5 46q170 0 257.5 -100t87.5 -295q0 -59 -10.5 -121t-28.5 -115t-47 -101t-64 -93q-80 -96 -170 -138.5t-217 -42.5q-168 0 -257 99.5t-89 285.5zM227 1192q55 33 81 46t54 26q35 14 69 22t65 8q6 0 12 -1t10 -1q41 -4 76 -22 q10 -6 28.5 -17.5t47.5 -27.5q29 -18 52 -25.5t46 -7.5q20 0 38.5 3t38 11t46.5 22.5t63 39.5l52 -109q-41 -35 -67 -50t-67 -32q-84 -33 -149 -33q-76 0 -170 56q-43 27 -62.5 33t-46.5 6q-33 0 -59.5 -8.5t-75.5 -36.5q-10 -6 -30 -19zM330 358q0 -92 32.5 -149t86.5 -57 q20 0 44.5 10t43.5 26q78 66 124 172.5t46 217.5q0 98 -31 155.5t-84 57.5q-47 0 -98.5 -42t-90.5 -114q-35 -66 -54 -136.5t-19 -140.5z" />
<glyph unicode="&#xf6;" horiz-adv-x="1021" d="M78 358q0 137 40 251t111.5 196t170 128t216.5 46q170 0 257.5 -100t87.5 -295q0 -59 -10.5 -121t-28.5 -115t-47 -101t-64 -93q-80 -96 -170 -138.5t-217 -42.5q-168 0 -257 99.5t-89 285.5zM330 358q0 -92 32.5 -149t86.5 -57q20 0 44.5 10t43.5 26q78 66 124 172.5 t46 217.5q0 98 -31 155.5t-84 57.5q-47 0 -98.5 -42t-90.5 -114q-35 -66 -54 -136.5t-19 -140.5zM356 1159q0 49 38 85t91 36q45 0 76 -35t31 -82q0 -49 -39 -85t-92 -36q-43 0 -74 35t-31 82zM694 1159q0 51 38 86t91 35q45 0 76 -35t31 -82q0 -49 -39 -84t-92 -35 q-43 0 -74 34t-31 81z" />
<glyph unicode="&#xf7;" d="M51 401v168h1024v-168h-1024zM428 98q0 57 40 97.5t97 40.5t97 -40.5t40 -97.5t-39.5 -97t-97.5 -40q-57 0 -97 40t-40 97zM430 874q0 57 40 97.5t97 40.5t97.5 -40.5t40.5 -97.5t-40 -97t-98 -40q-57 0 -97 40t-40 97z" />
<glyph unicode="&#xf8;" horiz-adv-x="1021" d="M78 356q0 137 40 251t110.5 197t170 129t215.5 46q20 0 32.5 -1t35.5 -5l61 143l103 -33l-62 -139q80 -29 128.5 -126t48.5 -232q0 -129 -40 -242t-111 -195.5t-166 -130t-204 -47.5q-18 0 -34.5 1t-45.5 5l-63 -143l-98 31l61 141q-88 35 -135 126t-47 224zM324 340 q0 -27 1 -43t4 -28.5t8 -24t15 -27.5l256 586q-8 0 -12 1t-6 1q-41 0 -96.5 -49t-96.5 -119q-74 -127 -73 -297zM432 139h8q41 0 95.5 45t101.5 119q41 66 64.5 141.5t23.5 147.5v21.5t-2 23.5q-2 20 -3 34.5t-4 26t-7 24.5t-11 32z" />
<glyph unicode="&#xf9;" horiz-adv-x="1099" d="M111 164v30.5t4 30.5l110 715l248 27l-96 -623q-4 -31 -6 -47t-2 -31q0 -66 43 -65q74 0 176 112q41 45 70.5 87t51 88.5t36 100.5t24.5 126l33 225l250 27l-150 -967h-231l45 283q-16 -29 -28.5 -51.5t-22.5 -38.5q-20 -29 -49 -61t-62 -60q-117 -98 -256 -99 q-188 0 -188 191zM432 1395h203l139 -336h-164z" />
<glyph unicode="&#xfa;" horiz-adv-x="1099" d="M111 164v30.5t4 30.5l110 715l248 27l-96 -623q-4 -31 -6 -47t-2 -31q0 -66 43 -65q74 0 176 112q41 45 70.5 87t51 88.5t36 100.5t24.5 126l33 225l250 27l-150 -967h-231l45 283q-16 -29 -28.5 -51.5t-22.5 -38.5q-20 -29 -49 -61t-62 -60q-117 -98 -256 -99 q-188 0 -188 191zM537 1059l245 336h244l-285 -336h-204z" />
<glyph unicode="&#xfb;" horiz-adv-x="1099" d="M111 164v30.5t4 30.5l110 715l248 27l-96 -623q-4 -31 -6 -47t-2 -31q0 -66 43 -65q74 0 176 112q41 45 70.5 87t51 88.5t36 100.5t24.5 126l33 225l250 27l-150 -967h-231l45 283q-16 -29 -28.5 -51.5t-22.5 -38.5q-20 -29 -49 -61t-62 -60q-117 -98 -256 -99 q-188 0 -188 191zM340 1057l283 336h161l177 -336h-179l-102 186l-164 -186h-176z" />
<glyph unicode="&#xfc;" horiz-adv-x="1099" d="M111 164v30.5t4 30.5l110 715l248 27l-96 -623q-4 -31 -6 -47t-2 -31q0 -66 43 -65q74 0 176 112q41 45 70.5 87t51 88.5t36 100.5t24.5 126l33 225l250 27l-150 -967h-231l45 283q-16 -29 -28.5 -51.5t-22.5 -38.5q-20 -29 -49 -61t-62 -60q-117 -98 -256 -99 q-188 0 -188 191zM371 1159q0 49 37.5 85t91.5 36q45 0 75.5 -35t30.5 -82q0 -49 -39 -85t-92 -36q-43 0 -73.5 35t-30.5 82zM741 1159q0 51 38 86t91 35q43 0 74 -35t31 -82q0 -49 -38 -84t-93 -35q-43 0 -73 34t-30 81z" />
<glyph unicode="&#xfd;" horiz-adv-x="899" d="M61 940l248 27l144 -662q27 35 45 60.5t31.5 49t25.5 48t27 55.5q35 78 49 142.5t14 138.5q0 39 -4 63.5t-16 63.5l252 41q10 -51 13 -82t3 -70q0 -141 -47 -276q-16 -45 -33.5 -82t-42.5 -76t-60.5 -85t-86.5 -108q-53 -63 -79 -104t-36 -84l-115 -477h-243l110 450 q8 31 12 64t4 57q0 20 -6 39zM373 1059l245 336h244l-284 -336h-205z" />
<glyph unicode="&#xfe;" horiz-adv-x="1077" d="M6 -477l301 1958l248 26l-125 -798q35 59 84 110t102.5 88t109.5 58.5t105 21.5q92 0 143.5 -76t51.5 -211q0 -147 -42 -280t-113.5 -233.5t-167 -159t-201.5 -58.5q-51 0 -92 10.5t-82 32.5l-78 -489h-244zM356 199q41 -33 61.5 -42.5t47.5 -9.5q53 0 111.5 43t99.5 115 q20 33 37.5 78t31 92t20.5 93t7 83q0 98 -53 99q-29 0 -75 -29t-89 -72q-27 -27 -58.5 -67.5t-52.5 -71.5q-53 -84 -69 -193z" />
<glyph unicode="&#xff;" horiz-adv-x="899" d="M61 940l248 27l144 -662q27 35 45 60.5t31.5 49t25.5 48t27 55.5q35 78 49 142.5t14 138.5q0 39 -4 63.5t-16 63.5l252 41q10 -51 13 -82t3 -70q0 -141 -47 -276q-16 -45 -33.5 -82t-42.5 -76t-60.5 -85t-86.5 -108q-53 -63 -79 -104t-36 -84l-115 -477h-243l110 450 q8 31 12 64t4 57q0 20 -6 39zM221 1161q0 51 38 86t91 35q45 0 76 -34t31 -83t-39 -83.5t-92 -34.5q-43 0 -74 33.5t-31 80.5zM575 1163q0 49 38 84t92 35q45 0 75.5 -34t30.5 -83t-39 -83.5t-92 -34.5q-43 0 -74 33.5t-31 82.5z" />
<glyph unicode="&#x152;" horiz-adv-x="1880" d="M96 563q0 172 63.5 321.5t175 258t263.5 171t328 62.5q33 0 56.5 -1t46 -4t47 -7t54.5 -12h807l-34 -219h-537l-53 -334h432l-33 -219h-434l-57 -361h555l-27 -219h-811q-39 -8 -66.5 -13t-51 -8.5t-47 -4.5t-50.5 -1q-141 0 -257 42t-198 120t-127 186.5t-45 241.5z M375 571q0 -86 26.5 -156.5t74.5 -121.5t117 -79t152 -28q33 0 59.5 3.5t50.5 10.5t48.5 20t54.5 34l134 852q-61 33 -100.5 45t-90.5 12q-109 0 -204 -47t-166.5 -128t-113.5 -188.5t-42 -228.5z" />
<glyph unicode="&#x153;" horiz-adv-x="1536" d="M78 358q0 135 40 250t111.5 197t170 128t216.5 46q82 0 154 -25q47 -16 71.5 -43.5t47.5 -85.5q33 39 55 58q51 43 131 68.5t168 25.5q266 0 266 -199q0 -80 -39.5 -137t-130.5 -104l-411 -220q4 -35 9 -53t15 -33q14 -23 41 -36t51 -13q20 0 53 8.5t64 20.5 q20 8 40 17.5t43.5 24.5t56 39.5t81.5 61.5l93 -145q-23 -18 -38.5 -31.5t-29.5 -25t-29.5 -22.5t-36.5 -26q-102 -72 -189 -103.5t-181 -31.5q-90 0 -139.5 38t-65.5 122q-14 -16 -27.5 -29.5l-23.5 -23.5q-109 -102 -289 -103q-170 0 -259 98.5t-89 286.5zM330 358 q0 -92 32.5 -149t86.5 -57q20 0 44.5 10t43.5 26q78 66 124 172.5t46 217.5q0 98 -31 155.5t-84 57.5q-47 0 -98.5 -42t-90.5 -114q-35 -66 -54 -136.5t-19 -140.5zM940 485l322 181q8 20 10 31.5t2 25.5q0 88 -82 88q-70 0 -137 -78q-18 -23 -32.5 -44t-28 -50t-27 -65.5 t-27.5 -88.5z" />
<glyph unicode="&#x178;" d="M158 1352h276l187 -525l364 525h295l-578 -779l-90 -573h-262l92 590zM375 1522q0 47 35.5 80.5t87.5 33.5q41 0 70.5 -31.5t29.5 -78.5t-36 -81t-89 -34q-41 0 -69.5 33t-28.5 78zM815 1520q0 47 36 80.5t87 33.5q41 0 70.5 -31.5t29.5 -78.5t-36.5 -81t-88.5 -34 q-41 0 -69.5 32t-28.5 79z" />
<glyph unicode="&#x2c6;" horiz-adv-x="692" d="M436 1057l283 336h164l176 -336h-178l-105 186l-162 -186h-178z" />
<glyph unicode="&#x2dc;" horiz-adv-x="929" d="M334 1192q55 33 80.5 46t54.5 26q35 14 68.5 22t64.5 8q6 0 12.5 -1t10.5 -1q41 -4 75 -22q10 -6 29 -17.5t47 -27.5q29 -18 52.5 -25.5t45.5 -7.5q20 0 39 3t38.5 11t46 22.5t63.5 39.5l51 -109q-41 -35 -66.5 -50t-66.5 -32q-84 -33 -150 -33q-76 0 -170 56 q-43 27 -62 33t-46 6q-33 0 -59.5 -8.5t-75.5 -36.5q-10 -6 -31 -19z" />
<glyph unicode="&#x2000;" horiz-adv-x="887" />
<glyph unicode="&#x2001;" horiz-adv-x="1774" />
<glyph unicode="&#x2002;" horiz-adv-x="887" />
<glyph unicode="&#x2003;" horiz-adv-x="1774" />
<glyph unicode="&#x2004;" horiz-adv-x="591" />
<glyph unicode="&#x2005;" horiz-adv-x="443" />
<glyph unicode="&#x2006;" horiz-adv-x="295" />
<glyph unicode="&#x2007;" horiz-adv-x="295" />
<glyph unicode="&#x2008;" horiz-adv-x="221" />
<glyph unicode="&#x2009;" horiz-adv-x="354" />
<glyph unicode="&#x200a;" horiz-adv-x="98" />
<glyph unicode="&#x2010;" horiz-adv-x="565" d="M57 356l39 228h428l-37 -228h-430z" />
<glyph unicode="&#x2011;" horiz-adv-x="565" d="M57 356l39 228h428l-37 -228h-430z" />
<glyph unicode="&#x2012;" horiz-adv-x="565" d="M57 356l39 228h428l-37 -228h-430z" />
<glyph unicode="&#x2013;" horiz-adv-x="1024" d="M-2 391l27 170h1024l-27 -170h-1024z" />
<glyph unicode="&#x2014;" horiz-adv-x="2048" d="M-2 391l27 170h2048l-27 -170h-2048z" />
<glyph unicode="&#x2018;" horiz-adv-x="514" d="M168 852q0 45 17.5 104.5t50 125t78.5 134t102 136.5h145q-16 -25 -26.5 -42.5t-19.5 -33.5t-19.5 -34.5t-22.5 -43.5t-20.5 -43t-14.5 -34.5t-11 -34t-11 -42.5l69 -272q-31 -14 -54 -23.5t-43.5 -14.5t-40 -7t-44.5 -2q-72 0 -103.5 30.5t-31.5 96.5z" />
<glyph unicode="&#x2019;" horiz-adv-x="514" d="M160 768q16 25 26.5 41t19.5 32.5t19.5 35t22.5 45.5q12 25 20 43t14.5 33.5t11.5 33t11 41.5l-69 275q33 14 55 23t42.5 14.5t40 7.5t44.5 2q72 0 104.5 -30.5t32.5 -96.5q0 -47 -17.5 -105.5t-50 -124t-79 -134t-101.5 -136.5h-147z" />
<glyph unicode="&#x201a;" horiz-adv-x="514" d="M-18 -338q14 23 25 40t20.5 32.5t19.5 34t23 45.5q12 27 20 44t14.5 33.5t11.5 34t11 41.5l-70 275q33 14 55.5 23t43 13.5t40 6.5t44.5 2q72 0 104.5 -30.5t32.5 -96.5q0 -45 -18.5 -103.5t-50.5 -124t-78 -135t-101 -135.5h-147z" />
<glyph unicode="&#x201c;" horiz-adv-x="894" d="M168 852q0 45 17.5 104.5t50 125t78.5 134t102 136.5h145q-16 -25 -26.5 -42.5t-19.5 -33.5t-19.5 -34.5t-22.5 -43.5t-20.5 -43t-14.5 -34.5t-11 -34t-11 -42.5l69 -272q-31 -14 -54 -23.5t-43.5 -14.5t-40 -7t-44.5 -2q-72 0 -103.5 30.5t-31.5 96.5zM547 852 q0 45 17.5 104.5t50 125t78.5 134t102 136.5h145q-16 -25 -26.5 -42.5t-19.5 -33.5t-18.5 -34.5t-21.5 -43.5t-20.5 -43t-14.5 -34.5t-11 -34t-11 -42.5l67 -272q-31 -14 -54.5 -23.5t-42.5 -14.5t-38.5 -7t-44.5 -2q-72 0 -104.5 30.5t-32.5 96.5z" />
<glyph unicode="&#x201d;" horiz-adv-x="894" d="M160 768q16 25 26.5 41t19.5 32.5t19.5 35t22.5 45.5q12 25 20 43t14.5 33.5t11.5 33t11 41.5l-69 275q33 14 55 23t42.5 14.5t40 7.5t44.5 2q72 0 104.5 -30.5t32.5 -96.5q0 -47 -17.5 -105.5t-50 -124t-79 -134t-101.5 -136.5h-147zM541 768q14 25 25.5 41t20.5 32.5 t19 35t23 45.5q12 25 20 43t13.5 33.5t10.5 33t11 41.5l-68 275q31 14 54.5 23t43 14.5t39 7.5t44.5 2q72 0 104.5 -30.5t32.5 -96.5q0 -47 -17.5 -105.5t-50 -124t-79 -134t-101.5 -136.5h-145z" />
<glyph unicode="&#x201e;" horiz-adv-x="894" d="M-18 -338q14 23 25 40t20.5 32.5t19.5 34t23 45.5q12 27 20 44t14.5 33.5t11.5 34t11 41.5l-70 275q33 14 55.5 23t43 13.5t40 6.5t44.5 2q72 0 104.5 -30.5t32.5 -96.5q0 -45 -18.5 -103.5t-50.5 -124t-78 -135t-101 -135.5h-147zM362 -338q14 23 25.5 40t21 32.5 t18.5 34t22 45.5q12 27 21 44t15.5 33.5t10.5 34t10 41.5l-70 275q33 14 55.5 23t43 13.5t40 6.5t43.5 2q72 0 105 -30.5t33 -96.5q0 -45 -18.5 -103.5t-50.5 -124t-78 -135t-101 -135.5h-146z" />
<glyph unicode="&#x2022;" horiz-adv-x="720" d="M39 471q0 68 28.5 128t77 105.5t114 72t138.5 26.5q61 0 114.5 -25.5t93.5 -68.5t63.5 -101.5t23.5 -126.5q0 -70 -28.5 -130t-77.5 -105t-116 -72t-142 -27q-59 0 -112.5 26t-92.5 70t-61.5 102t-22.5 126z" />
<glyph unicode="&#x2026;" horiz-adv-x="1536" d="M23 137q0 70 52 119t126 49q61 0 104 -48t43 -114q0 -70 -53 -119t-129 -49q-59 0 -101 48.5t-42 113.5zM551 139q0 70 52 118t128 48q59 0 102.5 -47t43.5 -113q0 -70 -53.5 -119t-129.5 -49q-29 0 -55.5 13.5t-46 35t-30.5 51t-11 62.5zM1067 139q0 70 52 118t128 48 q59 0 102.5 -47t43.5 -113q0 -70 -53.5 -119t-127.5 -49q-59 0 -102 48.5t-43 113.5z" />
<glyph unicode="&#x202f;" horiz-adv-x="354" />
<glyph unicode="&#x2039;" horiz-adv-x="657" d="M61 463l566 399l-39 -244l-232 -155l183 -154l-39 -246z" />
<glyph unicode="&#x203a;" horiz-adv-x="657" d="M49 63l39 246l229 154l-180 155l39 244l438 -399z" />
<glyph unicode="&#x205f;" horiz-adv-x="443" />
<glyph unicode="&#x20ac;" horiz-adv-x="1085" d="M74 352l16 99l148 20q4 25 7 49.5t9 48.5h-145l16 99q76 10 111.5 15t48 7t11.5 2h-1q74 172 216 271.5t325 99.5q41 0 78.5 -3t74.5 -13q25 -6 44.5 -13.5t38 -17.5t38.5 -23.5t47 -31.5l-147 -201q-47 45 -86 62.5t-95 17.5q-78 0 -144.5 -40t-113.5 -108h355l-21 -123 h-391q-12 -45 -18 -94h395l-21 -123h-364q18 -72 68.5 -113.5t125.5 -41.5q61 0 117.5 19.5t143.5 70.5l55 -215q-29 -14 -49.5 -24.5t-36.5 -16.5q-72 -31 -143.5 -45.5t-143.5 -14.5q-186 0 -292.5 101.5t-117.5 279.5h-159z" />
<glyph unicode="&#x2122;" horiz-adv-x="1767" d="M283 1198l24 154h567l-24 -154h-180l-80 -504h-207l80 504h-180zM872 694l105 658h297l65 -400l4 -51h13l22 51l205 400h307l-102 -658h-207l70 439h-13l-28 -91l-209 -348h-180l-84 363v90h-13l-71 -453h-181z" />
<glyph unicode="&#x25fc;" horiz-adv-x="962" d="M0 0v963h963v-963h-963z" />
</font>
</defs>
</svg>
